# Generated by scripts/convert_legacy_models.py; do not edit.
# Source: models/block/gltf/big_combustion_chamber.gltf @ 4108ca9bb332d11965c30e0c592b310d0858f251
mtllib big_combustion_chamber_fire.mtl

v 1.5 0.0625 1.8125
v 1.5 1 1.8125
v -0.5 1 1.8125
vt 0.25 0.8828125
vt 0.25 0.765625
vt 0 0.765625
vn 0 0 1
v 1.5 0.0625 1.8125
v -0.5 1 1.8125
v -0.5 0.0625 1.8125
vt 0.25 0.8828125
vt 0 0.765625
vt 0 0.8828125
vn 0 0 1

g fire_on_13_0
usemtl material_0_magneticraft_blocks_multiblocks_big_combustion_chamber
f 1/1/1 2/2/1 3/3/1
f 4/4/2 5/5/2 6/6/2
