# Generated by scripts/convert_legacy_models.py; do not edit.
# Source: models/block/mcx/computer.mcx @ 4108ca9bb332d11965c30e0c592b310d0858f251
mtllib computer_screen.mtl

v 0.53125 0.34375 0.5625
v 0.53125 0.34375 0.578125
v 0.03125 0.34375 0.578125
v 0.03125 0.34375 0.5625
vt 0.515625 0.859375
vt 0.515625 0.85546875
vt 0.390625 0.85546875
vt 0.390625 0.859375
vn 0 -1 0
v 0.03125 0.84375 0.578125
v 0.53125 0.84375 0.578125
v 0.53125 0.84375 0.5625
v 0.03125 0.84375 0.5625
vt 0.265625 0.859375
vt 0.390625 0.859375
vt 0.390625 0.85546875
vt 0.265625 0.85546875
vn 0 1 0
v 0.03125 0.84375 0.5625
v 0.53125 0.84375 0.5625
v 0.53125 0.34375 0.5625
v 0.03125 0.34375 0.5625
vt 0.51953125 0.859375
vt 0.39453125 0.859375
vt 0.39453125 0.984375
vt 0.51953125 0.984375
vn 0 0 -1
v 0.53125 0.34375 0.578125
v 0.53125 0.84375 0.578125
v 0.03125 0.84375 0.578125
v 0.03125 0.34375 0.578125
vt 0.390625 0.984375
vt 0.390625 0.859375
vt 0.265625 0.859375
vt 0.265625 0.984375
vn 0 0 1
v 0.03125 0.34375 0.578125
v 0.03125 0.84375 0.578125
v 0.03125 0.84375 0.5625
v 0.03125 0.34375 0.5625
vt 0.265625 0.984375
vt 0.265625 0.859375
vt 0.26171875 0.859375
vt 0.26171875 0.984375
vn -1 0 0
v 0.53125 0.84375 0.5625
v 0.53125 0.84375 0.578125
v 0.53125 0.34375 0.578125
v 0.53125 0.34375 0.5625
vt 0.39453125 0.859375
vt 0.390625 0.859375
vt 0.390625 0.984375
vt 0.39453125 0.984375
vn 1 0 0

g screen
usemtl material_0_magneticraft_blocks_computers_computer1
f 1/1/1 2/2/1 3/3/1 4/4/1
f 5/5/2 6/6/2 7/7/2 8/8/2
f 9/9/3 10/10/3 11/11/3 12/12/3
f 13/13/4 14/14/4 15/15/4 16/16/4
f 17/17/5 18/18/5 19/19/5 20/20/5
f 21/21/6 22/22/6 23/23/6 24/24/6
