# Generated by scripts/convert_legacy_models.py; do not edit.
# Source: models/block/mcx/conveyor_belt.mcx @ 4108ca9bb332d11965c30e0c592b310d0858f251
mtllib conveyor_belt.mtl

v 0.0625 0 0.875
v 0.0625 0 1
v 0 0 1
v 0 0 0.875
vt 0.0625 0.03125
vt 0.0625 0
vt 0.046875 0
vt 0.046875 0.03125
vn 0 -1 0
v 0 0.5625 1
v 0.0625 0.5625 1
v 0.0625 0.5625 0.875
v 0 0.5625 0.875
vt 0.03125 0.03125
vt 0.046875 0.03125
vt 0.046875 0
vt 0.03125 0
vn 0 1 0
v 0 0.5625 0.875
v 0.0625 0.5625 0.875
v 0.0625 0 0.875
v 0 0 0.875
vt 0.09375 0.03125
vt 0.078125 0.03125
vt 0.078125 0.171875
vt 0.09375 0.171875
vn 0 0 -1
v 0.0625 0 1
v 0.0625 0.5625 1
v 0 0.5625 1
v 0 0 1
vt 0.046875 0.171875
vt 0.046875 0.03125
vt 0.03125 0.03125
vt 0.03125 0.171875
vn 0 0 1
v 0 0 1
v 0 0.5625 1
v 0 0.5625 0.875
v 0 0 0.875
vt 0.03125 0.171875
vt 0.03125 0.03125
vt 0 0.03125
vt 0 0.171875
vn -1 0 0
v 0.0625 0.5625 0.875
v 0.0625 0.5625 1
v 0.0625 0 1
v 0.0625 0 0.875
vt 0.078125 0.03125
vt 0.046875 0.03125
vt 0.046875 0.171875
vt 0.078125 0.171875
vn 1 0 0
v 0.0625 0 0
v 0.0625 0 0.125
v 0 0 0.125
v 0 0 0
vt 0.0625 0.03125
vt 0.0625 0
vt 0.046875 0
vt 0.046875 0.03125
vn 0 -1 0
v 0 0.5625 0.125
v 0.0625 0.5625 0.125
v 0.0625 0.5625 0
v 0 0.5625 0
vt 0.03125 0.03125
vt 0.046875 0.03125
vt 0.046875 0
vt 0.03125 0
vn 0 1 0
v 0 0.5625 0
v 0.0625 0.5625 0
v 0.0625 0 0
v 0 0 0
vt 0.09375 0.03125
vt 0.078125 0.03125
vt 0.078125 0.171875
vt 0.09375 0.171875
vn 0 0 -1
v 0.0625 0 0.125
v 0.0625 0.5625 0.125
v 0 0.5625 0.125
v 0 0 0.125
vt 0.046875 0.171875
vt 0.046875 0.03125
vt 0.03125 0.03125
vt 0.03125 0.171875
vn 0 0 1
v 0 0 0.125
v 0 0.5625 0.125
v 0 0.5625 0
v 0 0 0
vt 0.03125 0.171875
vt 0.03125 0.03125
vt 0 0.03125
vt 0 0.171875
vn -1 0 0
v 0.0625 0.5625 0
v 0.0625 0.5625 0.125
v 0.0625 0 0.125
v 0.0625 0 0
vt 0.078125 0.03125
vt 0.046875 0.03125
vt 0.046875 0.171875
vt 0.078125 0.171875
vn 1 0 0
v 0.0625 0.5625 0
v 0.0625 0.5625 1
v 0 0.5625 1
v 0 0.5625 0
vt 0.28125 0.25
vt 0.28125 0
vt 0.265625 0
vt 0.265625 0.25
vn 0 -1 0
v 0 0.8125 1
v 0.0625 0.8125 1
v 0.0625 0.8125 0
v 0 0.8125 0
vt 0.25 0.25
vt 0.265625 0.25
vt 0.265625 0
vt 0.25 0
vn 0 1 0
v 0 0.8125 0
v 0.0625 0.8125 0
v 0.0625 0.5625 0
v 0 0.5625 0
vt 0.53125 0.25
vt 0.515625 0.25
vt 0.515625 0.3125
vt 0.53125 0.3125
vn 0 0 -1
v 0.0625 0.5625 1
v 0.0625 0.8125 1
v 0 0.8125 1
v 0 0.5625 1
vt 0.265625 0.3125
vt 0.265625 0.25
vt 0.25 0.25
vt 0.25 0.3125
vn 0 0 1
v 0 0.5625 1
v 0 0.8125 1
v 0 0.8125 0
v 0 0.5625 0
vt 0.25 0.3125
vt 0.25 0.25
vt 0 0.25
vt 0 0.3125
vn -1 0 0
v 0.0625 0.8125 0
v 0.0625 0.8125 1
v 0.0625 0.5625 1
v 0.0625 0.5625 0
vt 0.515625 0.25
vt 0.265625 0.25
vt 0.265625 0.3125
vt 0.515625 0.3125
vn 1 0 0
v 1 0 0.875
v 1 0 1
v 0.9375 0 1
v 0.9375 0 0.875
vt 0.0625 0.03125
vt 0.0625 0
vt 0.046875 0
vt 0.046875 0.03125
vn 0 -1 0
v 0.9375 0.5625 1
v 1 0.5625 1
v 1 0.5625 0.875
v 0.9375 0.5625 0.875
vt 0.03125 0.03125
vt 0.046875 0.03125
vt 0.046875 0
vt 0.03125 0
vn 0 1 0
v 0.9375 0.5625 0.875
v 1 0.5625 0.875
v 1 0 0.875
v 0.9375 0 0.875
vt 0.09375 0.03125
vt 0.078125 0.03125
vt 0.078125 0.171875
vt 0.09375 0.171875
vn 0 0 -1
v 1 0 1
v 1 0.5625 1
v 0.9375 0.5625 1
v 0.9375 0 1
vt 0.046875 0.171875
vt 0.046875 0.03125
vt 0.03125 0.03125
vt 0.03125 0.171875
vn 0 0 1
v 0.9375 0 1
v 0.9375 0.5625 1
v 0.9375 0.5625 0.875
v 0.9375 0 0.875
vt 0.03125 0.171875
vt 0.03125 0.03125
vt 0 0.03125
vt 0 0.171875
vn -1 0 0
v 1 0.5625 0.875
v 1 0.5625 1
v 1 0 1
v 1 0 0.875
vt 0.078125 0.03125
vt 0.046875 0.03125
vt 0.046875 0.171875
vt 0.078125 0.171875
vn 1 0 0
v 1 0 0
v 1 0 0.125
v 0.9375 0 0.125
v 0.9375 0 0
vt 0.0625 0.03125
vt 0.0625 0
vt 0.046875 0
vt 0.046875 0.03125
vn 0 -1 0
v 0.9375 0.5625 0.125
v 1 0.5625 0.125
v 1 0.5625 0
v 0.9375 0.5625 0
vt 0.03125 0.03125
vt 0.046875 0.03125
vt 0.046875 0
vt 0.03125 0
vn 0 1 0
v 0.9375 0.5625 0
v 1 0.5625 0
v 1 0 0
v 0.9375 0 0
vt 0.09375 0.03125
vt 0.078125 0.03125
vt 0.078125 0.171875
vt 0.09375 0.171875
vn 0 0 -1
v 1 0 0.125
v 1 0.5625 0.125
v 0.9375 0.5625 0.125
v 0.9375 0 0.125
vt 0.046875 0.171875
vt 0.046875 0.03125
vt 0.03125 0.03125
vt 0.03125 0.171875
vn 0 0 1
v 0.9375 0 0.125
v 0.9375 0.5625 0.125
v 0.9375 0.5625 0
v 0.9375 0 0
vt 0.03125 0.171875
vt 0.03125 0.03125
vt 0 0.03125
vt 0 0.171875
vn -1 0 0
v 1 0.5625 0
v 1 0.5625 0.125
v 1 0 0.125
v 1 0 0
vt 0.078125 0.03125
vt 0.046875 0.03125
vt 0.046875 0.171875
vt 0.078125 0.171875
vn 1 0 0
v 1 0.5625 0
v 1 0.5625 1
v 0.9375 0.5625 1
v 0.9375 0.5625 0
vt 0.28125 0.25
vt 0.28125 0
vt 0.265625 0
vt 0.265625 0.25
vn 0 -1 0
v 0.9375 0.8125 1
v 1 0.8125 1
v 1 0.8125 0
v 0.9375 0.8125 0
vt 0.25 0.25
vt 0.265625 0.25
vt 0.265625 0
vt 0.25 0
vn 0 1 0
v 0.9375 0.8125 0
v 1 0.8125 0
v 1 0.5625 0
v 0.9375 0.5625 0
vt 0.53125 0.25
vt 0.515625 0.25
vt 0.515625 0.3125
vt 0.53125 0.3125
vn 0 0 -1
v 1 0.5625 1
v 1 0.8125 1
v 0.9375 0.8125 1
v 0.9375 0.5625 1
vt 0.265625 0.3125
vt 0.265625 0.25
vt 0.25 0.25
vt 0.25 0.3125
vn 0 0 1
v 0.9375 0.5625 1
v 0.9375 0.8125 1
v 0.9375 0.8125 0
v 0.9375 0.5625 0
vt 0.25 0.3125
vt 0.25 0.25
vt 0 0.25
vt 0 0.3125
vn -1 0 0
v 1 0.8125 0
v 1 0.8125 1
v 1 0.5625 1
v 1 0.5625 0
vt 0.515625 0.25
vt 0.265625 0.25
vt 0.265625 0.3125
vt 0.515625 0.3125
vn 1 0 0
v 0.9375 0.125 0.875
v 0.9375 0.125 1
v 0.0625 0.125 1
v 0.0625 0.125 0.875
vt 0.46875 0.484375
vt 0.46875 0.453125
vt 0.25 0.453125
vt 0.25 0.484375
vn 0 -1 0
v 0.0625 0.25 1
v 0.9375 0.25 1
v 0.9375 0.25 0.875
v 0.0625 0.25 0.875
vt 0.03125 0.484375
vt 0.25 0.484375
vt 0.25 0.453125
vt 0.03125 0.453125
vn 0 1 0
v 0.0625 0.25 0.875
v 0.9375 0.25 0.875
v 0.9375 0.125 0.875
v 0.0625 0.125 0.875
vt 0.5 0.484375
vt 0.28125 0.484375
vt 0.28125 0.515625
vt 0.5 0.515625
vn 0 0 -1
v 0.9375 0.125 1
v 0.9375 0.25 1
v 0.0625 0.25 1
v 0.0625 0.125 1
vt 0.25 0.515625
vt 0.25 0.484375
vt 0.03125 0.484375
vt 0.03125 0.515625
vn 0 0 1
v 0.0625 0.125 1
v 0.0625 0.25 1
v 0.0625 0.25 0.875
v 0.0625 0.125 0.875
vt 0.03125 0.515625
vt 0.03125 0.484375
vt 0 0.484375
vt 0 0.515625
vn -1 0 0
v 0.9375 0.25 0.875
v 0.9375 0.25 1
v 0.9375 0.125 1
v 0.9375 0.125 0.875
vt 0.28125 0.484375
vt 0.25 0.484375
vt 0.25 0.515625
vt 0.28125 0.515625
vn 1 0 0
v 0.9375 0.125 0
v 0.9375 0.125 0.125
v 0.0625 0.125 0.125
v 0.0625 0.125 0
vt 0.46875 0.484375
vt 0.46875 0.453125
vt 0.25 0.453125
vt 0.25 0.484375
vn 0 -1 0
v 0.0625 0.25 0.125
v 0.9375 0.25 0.125
v 0.9375 0.25 0
v 0.0625 0.25 0
vt 0.03125 0.484375
vt 0.25 0.484375
vt 0.25 0.453125
vt 0.03125 0.453125
vn 0 1 0
v 0.0625 0.25 0
v 0.9375 0.25 0
v 0.9375 0.125 0
v 0.0625 0.125 0
vt 0.5 0.484375
vt 0.28125 0.484375
vt 0.28125 0.515625
vt 0.5 0.515625
vn 0 0 -1
v 0.9375 0.125 0.125
v 0.9375 0.25 0.125
v 0.0625 0.25 0.125
v 0.0625 0.125 0.125
vt 0.25 0.515625
vt 0.25 0.484375
vt 0.03125 0.484375
vt 0.03125 0.515625
vn 0 0 1
v 0.0625 0.125 0.125
v 0.0625 0.25 0.125
v 0.0625 0.25 0
v 0.0625 0.125 0
vt 0.03125 0.515625
vt 0.03125 0.484375
vt 0 0.484375
vt 0 0.515625
vn -1 0 0
v 0.9375 0.25 0
v 0.9375 0.25 0.125
v 0.9375 0.125 0.125
v 0.9375 0.125 0
vt 0.28125 0.484375
vt 0.25 0.484375
vt 0.25 0.515625
vt 0.28125 0.515625
vn 1 0 0
v 1.03125 0.65625 0.887499988
v 1.03125 0.65625 0.949999988
v -0.03125 0.65625 0.949999988
v -0.03125 0.65625 0.887499988
vt 0.546875 0.421875
vt 0.546875 0.40625
vt 0.28125 0.40625
vt 0.28125 0.421875
vn 0 -1 0
v -0.03125 0.71875 0.949999988
v 1.03125 0.71875 0.949999988
v 1.03125 0.71875 0.887499988
v -0.03125 0.71875 0.887499988
vt 0.015625 0.421875
vt 0.28125 0.421875
vt 0.28125 0.40625
vt 0.015625 0.40625
vn 0 1 0
v -0.03125 0.71875 0.887499988
v 1.03125 0.71875 0.887499988
v 1.03125 0.65625 0.887499988
v -0.03125 0.65625 0.887499988
vt 0.5625 0.421875
vt 0.296875 0.421875
vt 0.296875 0.4375
vt 0.5625 0.4375
vn 0 0 -1
v 1.03125 0.65625 0.949999988
v 1.03125 0.71875 0.949999988
v -0.03125 0.71875 0.949999988
v -0.03125 0.65625 0.949999988
vt 0.28125 0.4375
vt 0.28125 0.421875
vt 0.015625 0.421875
vt 0.015625 0.4375
vn 0 0 1
v -0.03125 0.65625 0.949999988
v -0.03125 0.71875 0.949999988
v -0.03125 0.71875 0.887499988
v -0.03125 0.65625 0.887499988
vt 0.015625 0.4375
vt 0.015625 0.421875
vt 0 0.421875
vt 0 0.4375
vn -1 0 0
v 1.03125 0.71875 0.887499988
v 1.03125 0.71875 0.949999988
v 1.03125 0.65625 0.949999988
v 1.03125 0.65625 0.887499988
vt 0.296875 0.421875
vt 0.28125 0.421875
vt 0.28125 0.4375
vt 0.296875 0.4375
vn 1 0 0
v 1.03125 0.65625 0.712500006
v 1.03125 0.65625 0.775000006
v -0.03125 0.65625 0.775000006
v -0.03125 0.65625 0.712500006
vt 0.546875 0.421875
vt 0.546875 0.40625
vt 0.28125 0.40625
vt 0.28125 0.421875
vn 0 -1 0
v -0.03125 0.71875 0.775000006
v 1.03125 0.71875 0.775000006
v 1.03125 0.71875 0.712500006
v -0.03125 0.71875 0.712500006
vt 0.015625 0.421875
vt 0.28125 0.421875
vt 0.28125 0.40625
vt 0.015625 0.40625
vn 0 1 0
v -0.03125 0.71875 0.712500006
v 1.03125 0.71875 0.712500006
v 1.03125 0.65625 0.712500006
v -0.03125 0.65625 0.712500006
vt 0.5625 0.421875
vt 0.296875 0.421875
vt 0.296875 0.4375
vt 0.5625 0.4375
vn 0 0 -1
v 1.03125 0.65625 0.775000006
v 1.03125 0.71875 0.775000006
v -0.03125 0.71875 0.775000006
v -0.03125 0.65625 0.775000006
vt 0.28125 0.4375
vt 0.28125 0.421875
vt 0.015625 0.421875
vt 0.015625 0.4375
vn 0 0 1
v -0.03125 0.65625 0.775000006
v -0.03125 0.71875 0.775000006
v -0.03125 0.71875 0.712500006
v -0.03125 0.65625 0.712500006
vt 0.015625 0.4375
vt 0.015625 0.421875
vt 0 0.421875
vt 0 0.4375
vn -1 0 0
v 1.03125 0.71875 0.712500006
v 1.03125 0.71875 0.775000006
v 1.03125 0.65625 0.775000006
v 1.03125 0.65625 0.712500006
vt 0.296875 0.421875
vt 0.28125 0.421875
vt 0.28125 0.4375
vt 0.296875 0.4375
vn 1 0 0
v 1.03125 0.65625 0.543750003
v 1.03125 0.65625 0.606250003
v -0.03125 0.65625 0.606250003
v -0.03125 0.65625 0.543750003
vt 0.546875 0.421875
vt 0.546875 0.40625
vt 0.28125 0.40625
vt 0.28125 0.421875
vn 0 -1 0
v -0.03125 0.71875 0.606250003
v 1.03125 0.71875 0.606250003
v 1.03125 0.71875 0.543750003
v -0.03125 0.71875 0.543750003
vt 0.015625 0.421875
vt 0.28125 0.421875
vt 0.28125 0.40625
vt 0.015625 0.40625
vn 0 1 0
v -0.03125 0.71875 0.543750003
v 1.03125 0.71875 0.543750003
v 1.03125 0.65625 0.543750003
v -0.03125 0.65625 0.543750003
vt 0.5625 0.421875
vt 0.296875 0.421875
vt 0.296875 0.4375
vt 0.5625 0.4375
vn 0 0 -1
v 1.03125 0.65625 0.606250003
v 1.03125 0.71875 0.606250003
v -0.03125 0.71875 0.606250003
v -0.03125 0.65625 0.606250003
vt 0.28125 0.4375
vt 0.28125 0.421875
vt 0.015625 0.421875
vt 0.015625 0.4375
vn 0 0 1
v -0.03125 0.65625 0.606250003
v -0.03125 0.71875 0.606250003
v -0.03125 0.71875 0.543750003
v -0.03125 0.65625 0.543750003
vt 0.015625 0.4375
vt 0.015625 0.421875
vt 0 0.421875
vt 0 0.4375
vn -1 0 0
v 1.03125 0.71875 0.543750003
v 1.03125 0.71875 0.606250003
v 1.03125 0.65625 0.606250003
v 1.03125 0.65625 0.543750003
vt 0.296875 0.421875
vt 0.28125 0.421875
vt 0.28125 0.4375
vt 0.296875 0.4375
vn 1 0 0
v 1.03125 0.65625 0.381250001
v 1.03125 0.65625 0.443750001
v -0.03125 0.65625 0.443750001
v -0.03125 0.65625 0.381250001
vt 0.546875 0.421875
vt 0.546875 0.40625
vt 0.28125 0.40625
vt 0.28125 0.421875
vn 0 -1 0
v -0.03125 0.71875 0.443750001
v 1.03125 0.71875 0.443750001
v 1.03125 0.71875 0.381250001
v -0.03125 0.71875 0.381250001
vt 0.015625 0.421875
vt 0.28125 0.421875
vt 0.28125 0.40625
vt 0.015625 0.40625
vn 0 1 0
v -0.03125 0.71875 0.381250001
v 1.03125 0.71875 0.381250001
v 1.03125 0.65625 0.381250001
v -0.03125 0.65625 0.381250001
vt 0.5625 0.421875
vt 0.296875 0.421875
vt 0.296875 0.4375
vt 0.5625 0.4375
vn 0 0 -1
v 1.03125 0.65625 0.443750001
v 1.03125 0.71875 0.443750001
v -0.03125 0.71875 0.443750001
v -0.03125 0.65625 0.443750001
vt 0.28125 0.4375
vt 0.28125 0.421875
vt 0.015625 0.421875
vt 0.015625 0.4375
vn 0 0 1
v -0.03125 0.65625 0.443750001
v -0.03125 0.71875 0.443750001
v -0.03125 0.71875 0.381250001
v -0.03125 0.65625 0.381250001
vt 0.015625 0.4375
vt 0.015625 0.421875
vt 0 0.421875
vt 0 0.4375
vn -1 0 0
v 1.03125 0.71875 0.381250001
v 1.03125 0.71875 0.443750001
v 1.03125 0.65625 0.443750001
v 1.03125 0.65625 0.381250001
vt 0.296875 0.421875
vt 0.28125 0.421875
vt 0.28125 0.4375
vt 0.296875 0.4375
vn 1 0 0
v 1.03125 0.65625 0.212500006
v 1.03125 0.65625 0.275000006
v -0.03125 0.65625 0.275000006
v -0.03125 0.65625 0.212500006
vt 0.546875 0.421875
vt 0.546875 0.40625
vt 0.28125 0.40625
vt 0.28125 0.421875
vn 0 -1 0
v -0.03125 0.71875 0.275000006
v 1.03125 0.71875 0.275000006
v 1.03125 0.71875 0.212500006
v -0.03125 0.71875 0.212500006
vt 0.015625 0.421875
vt 0.28125 0.421875
vt 0.28125 0.40625
vt 0.015625 0.40625
vn 0 1 0
v -0.03125 0.71875 0.212500006
v 1.03125 0.71875 0.212500006
v 1.03125 0.65625 0.212500006
v -0.03125 0.65625 0.212500006
vt 0.5625 0.421875
vt 0.296875 0.421875
vt 0.296875 0.4375
vt 0.5625 0.4375
vn 0 0 -1
v 1.03125 0.65625 0.275000006
v 1.03125 0.71875 0.275000006
v -0.03125 0.71875 0.275000006
v -0.03125 0.65625 0.275000006
vt 0.28125 0.4375
vt 0.28125 0.421875
vt 0.015625 0.421875
vt 0.015625 0.4375
vn 0 0 1
v -0.03125 0.65625 0.275000006
v -0.03125 0.71875 0.275000006
v -0.03125 0.71875 0.212500006
v -0.03125 0.65625 0.212500006
vt 0.015625 0.4375
vt 0.015625 0.421875
vt 0 0.421875
vt 0 0.4375
vn -1 0 0
v 1.03125 0.71875 0.212500006
v 1.03125 0.71875 0.275000006
v 1.03125 0.65625 0.275000006
v 1.03125 0.65625 0.212500006
vt 0.296875 0.421875
vt 0.28125 0.421875
vt 0.28125 0.4375
vt 0.296875 0.4375
vn 1 0 0
v 1.03125 0.65625 0.050000012
v 1.03125 0.65625 0.112500012
v -0.03125 0.65625 0.112500012
v -0.03125 0.65625 0.050000012
vt 0.546875 0.421875
vt 0.546875 0.40625
vt 0.28125 0.40625
vt 0.28125 0.421875
vn 0 -1 0
v -0.03125 0.71875 0.112500012
v 1.03125 0.71875 0.112500012
v 1.03125 0.71875 0.050000012
v -0.03125 0.71875 0.050000012
vt 0.015625 0.421875
vt 0.28125 0.421875
vt 0.28125 0.40625
vt 0.015625 0.40625
vn 0 1 0
v -0.03125 0.71875 0.050000012
v 1.03125 0.71875 0.050000012
v 1.03125 0.65625 0.050000012
v -0.03125 0.65625 0.050000012
vt 0.5625 0.421875
vt 0.296875 0.421875
vt 0.296875 0.4375
vt 0.5625 0.4375
vn 0 0 -1
v 1.03125 0.65625 0.112500012
v 1.03125 0.71875 0.112500012
v -0.03125 0.71875 0.112500012
v -0.03125 0.65625 0.112500012
vt 0.28125 0.4375
vt 0.28125 0.421875
vt 0.015625 0.421875
vt 0.015625 0.4375
vn 0 0 1
v -0.03125 0.65625 0.112500012
v -0.03125 0.71875 0.112500012
v -0.03125 0.71875 0.050000012
v -0.03125 0.65625 0.050000012
vt 0.015625 0.4375
vt 0.015625 0.421875
vt 0 0.421875
vt 0 0.4375
vn -1 0 0
v 1.03125 0.71875 0.050000012
v 1.03125 0.71875 0.112500012
v 1.03125 0.65625 0.112500012
v 1.03125 0.65625 0.050000012
vt 0.296875 0.421875
vt 0.28125 0.421875
vt 0.28125 0.4375
vt 0.296875 0.4375
vn 1 0 0
v 0.0625 0.5625 0.0625
v 0.0625 0.5625 0.9375
v 0 0.5625 0.9375
v 0 0.5625 0.0625
vt 0.734375 0.328125
vt 0.734375 0.109375
vt 0.71875 0.109375
vt 0.71875 0.328125
vn 0 -1 0
v 0 0.75 0.9375
v 0.0625 0.75 0.9375
v 0.0625 0.75 0.0625
v 0 0.75 0.0625
vt 0.703125 0.328125
vt 0.71875 0.328125
vt 0.71875 0.109375
vt 0.703125 0.109375
vn 0 1 0
v 0 0.75 0.0625
v 0.0625 0.75 0.0625
v 0.0625 0.5625 0.0625
v 0 0.5625 0.0625
vt 0.953125 0.328125
vt 0.9375 0.328125
vt 0.9375 0.375
vt 0.953125 0.375
vn 0 0 -1
v 0.0625 0.5625 0.9375
v 0.0625 0.75 0.9375
v 0 0.75 0.9375
v 0 0.5625 0.9375
vt 0.71875 0.375
vt 0.71875 0.328125
vt 0.703125 0.328125
vt 0.703125 0.375
vn 0 0 1
v 0 0.5625 0.9375
v 0 0.75 0.9375
v 0 0.75 0.0625
v 0 0.5625 0.0625
vt 0.703125 0.375
vt 0.703125 0.328125
vt 0.484375 0.328125
vt 0.484375 0.375
vn -1 0 0
v 0.0625 0.75 0.0625
v 0.0625 0.75 0.9375
v 0.0625 0.5625 0.9375
v 0.0625 0.5625 0.0625
vt 0.9375 0.328125
vt 0.71875 0.328125
vt 0.71875 0.375
vt 0.9375 0.375
vn 1 0 0
v 0.0625 0.5625 0.9375
v 0.0625 0.5625 1
v 0 0.5625 1
v 0 0.5625 0.9375
vt 0.28125 0.25
vt 0.28125 0.234375
vt 0.265625 0.234375
vt 0.265625 0.25
vn 0 -1 0
v 0 0.8125 1
v 0.0625 0.8125 1
v 0.0625 0.8125 0.9375
v 0 0.8125 0.9375
vt 0.25 0.25
vt 0.265625 0.25
vt 0.265625 0.234375
vt 0.25 0.234375
vn 0 1 0
v 0 0.8125 0.9375
v 0.0625 0.8125 0.9375
v 0.0625 0.5625 0.9375
v 0 0.5625 0.9375
vt 0.296875 0.25
vt 0.28125 0.25
vt 0.28125 0.3125
vt 0.296875 0.3125
vn 0 0 -1
v 0.0625 0.5625 1
v 0.0625 0.8125 1
v 0 0.8125 1
v 0 0.5625 1
vt 0.265625 0.3125
vt 0.265625 0.25
vt 0.25 0.25
vt 0.25 0.3125
vn 0 0 1
v 0 0.5625 1
v 0 0.8125 1
v 0 0.8125 0.9375
v 0 0.5625 0.9375
vt 0.25 0.3125
vt 0.25 0.25
vt 0.234375 0.25
vt 0.234375 0.3125
vn -1 0 0
v 0.0625 0.8125 0.9375
v 0.0625 0.8125 1
v 0.0625 0.5625 1
v 0.0625 0.5625 0.9375
vt 0.28125 0.25
vt 0.265625 0.25
vt 0.265625 0.3125
vt 0.28125 0.3125
vn 1 0 0
v 0.0625 0.5625 0
v 0.0625 0.5625 0.0625
v 0 0.5625 0.0625
v 0 0.5625 0
vt 0.28125 0.25
vt 0.28125 0.234375
vt 0.265625 0.234375
vt 0.265625 0.25
vn 0 -1 0
v 0 0.8125 0.0625
v 0.0625 0.8125 0.0625
v 0.0625 0.8125 0
v 0 0.8125 0
vt 0.25 0.25
vt 0.265625 0.25
vt 0.265625 0.234375
vt 0.25 0.234375
vn 0 1 0
v 0 0.8125 0
v 0.0625 0.8125 0
v 0.0625 0.5625 0
v 0 0.5625 0
vt 0.296875 0.25
vt 0.28125 0.25
vt 0.28125 0.3125
vt 0.296875 0.3125
vn 0 0 -1
v 0.0625 0.5625 0.0625
v 0.0625 0.8125 0.0625
v 0 0.8125 0.0625
v 0 0.5625 0.0625
vt 0.265625 0.3125
vt 0.265625 0.25
vt 0.25 0.25
vt 0.25 0.3125
vn 0 0 1
v 0 0.5625 0.0625
v 0 0.8125 0.0625
v 0 0.8125 0
v 0 0.5625 0
vt 0.25 0.3125
vt 0.25 0.25
vt 0.234375 0.25
vt 0.234375 0.3125
vn -1 0 0
v 0.0625 0.8125 0
v 0.0625 0.8125 0.0625
v 0.0625 0.5625 0.0625
v 0.0625 0.5625 0
vt 0.28125 0.25
vt 0.265625 0.25
vt 0.265625 0.3125
vt 0.28125 0.3125
vn 1 0 0
v 1 0.5625 0.0625
v 1 0.5625 0.9375
v 0.9375 0.5625 0.9375
v 0.9375 0.5625 0.0625
vt 0.734375 0.328125
vt 0.734375 0.109375
vt 0.71875 0.109375
vt 0.71875 0.328125
vn 0 -1 0
v 0.9375 0.75 0.9375
v 1 0.75 0.9375
v 1 0.75 0.0625
v 0.9375 0.75 0.0625
vt 0.703125 0.328125
vt 0.71875 0.328125
vt 0.71875 0.109375
vt 0.703125 0.109375
vn 0 1 0
v 0.9375 0.75 0.0625
v 1 0.75 0.0625
v 1 0.5625 0.0625
v 0.9375 0.5625 0.0625
vt 0.953125 0.328125
vt 0.9375 0.328125
vt 0.9375 0.375
vt 0.953125 0.375
vn 0 0 -1
v 1 0.5625 0.9375
v 1 0.75 0.9375
v 0.9375 0.75 0.9375
v 0.9375 0.5625 0.9375
vt 0.71875 0.375
vt 0.71875 0.328125
vt 0.703125 0.328125
vt 0.703125 0.375
vn 0 0 1
v 0.9375 0.5625 0.9375
v 0.9375 0.75 0.9375
v 0.9375 0.75 0.0625
v 0.9375 0.5625 0.0625
vt 0.703125 0.375
vt 0.703125 0.328125
vt 0.484375 0.328125
vt 0.484375 0.375
vn -1 0 0
v 1 0.75 0.0625
v 1 0.75 0.9375
v 1 0.5625 0.9375
v 1 0.5625 0.0625
vt 0.9375 0.328125
vt 0.71875 0.328125
vt 0.71875 0.375
vt 0.9375 0.375
vn 1 0 0
v 1 0.5625 0.9375
v 1 0.5625 1
v 0.9375 0.5625 1
v 0.9375 0.5625 0.9375
vt 0.28125 0.25
vt 0.28125 0.234375
vt 0.265625 0.234375
vt 0.265625 0.25
vn 0 -1 0
v 0.9375 0.8125 1
v 1 0.8125 1
v 1 0.8125 0.9375
v 0.9375 0.8125 0.9375
vt 0.25 0.25
vt 0.265625 0.25
vt 0.265625 0.234375
vt 0.25 0.234375
vn 0 1 0
v 0.9375 0.8125 0.9375
v 1 0.8125 0.9375
v 1 0.5625 0.9375
v 0.9375 0.5625 0.9375
vt 0.296875 0.25
vt 0.28125 0.25
vt 0.28125 0.3125
vt 0.296875 0.3125
vn 0 0 -1
v 1 0.5625 1
v 1 0.8125 1
v 0.9375 0.8125 1
v 0.9375 0.5625 1
vt 0.265625 0.3125
vt 0.265625 0.25
vt 0.25 0.25
vt 0.25 0.3125
vn 0 0 1
v 0.9375 0.5625 1
v 0.9375 0.8125 1
v 0.9375 0.8125 0.9375
v 0.9375 0.5625 0.9375
vt 0.25 0.3125
vt 0.25 0.25
vt 0.234375 0.25
vt 0.234375 0.3125
vn -1 0 0
v 1 0.8125 0.9375
v 1 0.8125 1
v 1 0.5625 1
v 1 0.5625 0.9375
vt 0.28125 0.25
vt 0.265625 0.25
vt 0.265625 0.3125
vt 0.28125 0.3125
vn 1 0 0
v 1 0.5625 0
v 1 0.5625 0.0625
v 0.9375 0.5625 0.0625
v 0.9375 0.5625 0
vt 0.28125 0.25
vt 0.28125 0.234375
vt 0.265625 0.234375
vt 0.265625 0.25
vn 0 -1 0
v 0.9375 0.8125 0.0625
v 1 0.8125 0.0625
v 1 0.8125 0
v 0.9375 0.8125 0
vt 0.25 0.25
vt 0.265625 0.25
vt 0.265625 0.234375
vt 0.25 0.234375
vn 0 1 0
v 0.9375 0.8125 0
v 1 0.8125 0
v 1 0.5625 0
v 0.9375 0.5625 0
vt 0.296875 0.25
vt 0.28125 0.25
vt 0.28125 0.3125
vt 0.296875 0.3125
vn 0 0 -1
v 1 0.5625 0.0625
v 1 0.8125 0.0625
v 0.9375 0.8125 0.0625
v 0.9375 0.5625 0.0625
vt 0.265625 0.3125
vt 0.265625 0.25
vt 0.25 0.25
vt 0.25 0.3125
vn 0 0 1
v 0.9375 0.5625 0.0625
v 0.9375 0.8125 0.0625
v 0.9375 0.8125 0
v 0.9375 0.5625 0
vt 0.25 0.3125
vt 0.25 0.25
vt 0.234375 0.25
vt 0.234375 0.3125
vn -1 0 0
v 1 0.8125 0
v 1 0.8125 0.0625
v 1 0.5625 0.0625
v 1 0.5625 0
vt 0.28125 0.25
vt 0.265625 0.25
vt 0.265625 0.3125
vt 0.28125 0.3125
vn 1 0 0
v 0.125 0.75 1
v 0.875 0.75 1
v 0.875 0.75 0
v 0.125 0.75 0
vt 0.874999955 -0.000000034
vt 0.124999955 0.000000034
vt 0.125000045 1.000000034
vt 0.875000045 0.999999966
vn 0 1 0
v 0.125 0.75 0
v 0.875 0.75 0
v 0.875 0.625 0
v 0.125 0.625 0
vt 0.875 0
vt 0.125 0
vt 0.125 0.125
vt 0.875 0.125
vn 0 0 -1
v 0.875 0.625 1
v 0.875 0.75 1
v 0.125 0.75 1
v 0.125 0.625 1
vt 0.124999994 0.875000034
vt 0.125000006 1.000000034
vt 0.875000006 0.999999966
vt 0.874999994 0.874999966
vn 0 0 1
v 0.875 0.625 0
v 0.875 0.625 1
v 0.125 0.625 1
v 0.125 0.625 0
vt 0.1875 0.765625
vt 0.1875 0.515625
vt 0 0.515625
vt 0 0.765625
vn 0 -1 0
v 0.125 0.625 1
v 0.125 0.75 1
v 0.125 0.75 0
v 0.125 0.625 0
vt 0.25 0.828125
vt 0.25 0.796875
vt 0 0.796875
vt 0 0.828125
vn -1 0 0
v 0.875 0.75 0
v 0.875 0.75 1
v 0.875 0.625 1
v 0.875 0.625 0
vt 0.25 0.765625
vt 0 0.765625
vt 0 0.796875
vt 0.25 0.796875
vn 1 0 0

g back_leg2
usemtl material_0_magneticraft_blocks_machines_conveyor_belt
f 1/1/1 2/2/1 3/3/1 4/4/1
f 5/5/2 6/6/2 7/7/2 8/8/2
f 9/9/3 10/10/3 11/11/3 12/12/3
f 13/13/4 14/14/4 15/15/4 16/16/4
f 17/17/5 18/18/5 19/19/5 20/20/5
f 21/21/6 22/22/6 23/23/6 24/24/6
g front_leg2
f 25/25/7 26/26/7 27/27/7 28/28/7
f 29/29/8 30/30/8 31/31/8 32/32/8
f 33/33/9 34/34/9 35/35/9 36/36/9
f 37/37/10 38/38/10 39/39/10 40/40/10
f 41/41/11 42/42/11 43/43/11 44/44/11
f 45/45/12 46/46/12 47/47/12 48/48/12
g panel_left
f 49/49/13 50/50/13 51/51/13 52/52/13
f 53/53/14 54/54/14 55/55/14 56/56/14
f 57/57/15 58/58/15 59/59/15 60/60/15
f 61/61/16 62/62/16 63/63/16 64/64/16
f 65/65/17 66/66/17 67/67/17 68/68/17
f 69/69/18 70/70/18 71/71/18 72/72/18
g back_leg1
f 73/73/19 74/74/19 75/75/19 76/76/19
f 77/77/20 78/78/20 79/79/20 80/80/20
f 81/81/21 82/82/21 83/83/21 84/84/21
f 85/85/22 86/86/22 87/87/22 88/88/22
f 89/89/23 90/90/23 91/91/23 92/92/23
f 93/93/24 94/94/24 95/95/24 96/96/24
g front_leg1
f 97/97/25 98/98/25 99/99/25 100/100/25
f 101/101/26 102/102/26 103/103/26 104/104/26
f 105/105/27 106/106/27 107/107/27 108/108/27
f 109/109/28 110/110/28 111/111/28 112/112/28
f 113/113/29 114/114/29 115/115/29 116/116/29
f 117/117/30 118/118/30 119/119/30 120/120/30
g panel_right
f 121/121/31 122/122/31 123/123/31 124/124/31
f 125/125/32 126/126/32 127/127/32 128/128/32
f 129/129/33 130/130/33 131/131/33 132/132/33
f 133/133/34 134/134/34 135/135/34 136/136/34
f 137/137/35 138/138/35 139/139/35 140/140/35
f 141/141/36 142/142/36 143/143/36 144/144/36
g back_leg3
f 145/145/37 146/146/37 147/147/37 148/148/37
f 149/149/38 150/150/38 151/151/38 152/152/38
f 153/153/39 154/154/39 155/155/39 156/156/39
f 157/157/40 158/158/40 159/159/40 160/160/40
f 161/161/41 162/162/41 163/163/41 164/164/41
f 165/165/42 166/166/42 167/167/42 168/168/42
g front_leg3
f 169/169/43 170/170/43 171/171/43 172/172/43
f 173/173/44 174/174/44 175/175/44 176/176/44
f 177/177/45 178/178/45 179/179/45 180/180/45
f 181/181/46 182/182/46 183/183/46 184/184/46
f 185/185/47 186/186/47 187/187/47 188/188/47
f 189/189/48 190/190/48 191/191/48 192/192/48
g axis1
f 193/193/49 194/194/49 195/195/49 196/196/49
f 197/197/50 198/198/50 199/199/50 200/200/50
f 201/201/51 202/202/51 203/203/51 204/204/51
f 205/205/52 206/206/52 207/207/52 208/208/52
f 209/209/53 210/210/53 211/211/53 212/212/53
f 213/213/54 214/214/54 215/215/54 216/216/54
g axis2
f 217/217/55 218/218/55 219/219/55 220/220/55
f 221/221/56 222/222/56 223/223/56 224/224/56
f 225/225/57 226/226/57 227/227/57 228/228/57
f 229/229/58 230/230/58 231/231/58 232/232/58
f 233/233/59 234/234/59 235/235/59 236/236/59
f 237/237/60 238/238/60 239/239/60 240/240/60
g axis3
f 241/241/61 242/242/61 243/243/61 244/244/61
f 245/245/62 246/246/62 247/247/62 248/248/62
f 249/249/63 250/250/63 251/251/63 252/252/63
f 253/253/64 254/254/64 255/255/64 256/256/64
f 257/257/65 258/258/65 259/259/65 260/260/65
f 261/261/66 262/262/66 263/263/66 264/264/66
g axis4
f 265/265/67 266/266/67 267/267/67 268/268/67
f 269/269/68 270/270/68 271/271/68 272/272/68
f 273/273/69 274/274/69 275/275/69 276/276/69
f 277/277/70 278/278/70 279/279/70 280/280/70
f 281/281/71 282/282/71 283/283/71 284/284/71
f 285/285/72 286/286/72 287/287/72 288/288/72
g axis5
f 289/289/73 290/290/73 291/291/73 292/292/73
f 293/293/74 294/294/74 295/295/74 296/296/74
f 297/297/75 298/298/75 299/299/75 300/300/75
f 301/301/76 302/302/76 303/303/76 304/304/76
f 305/305/77 306/306/77 307/307/77 308/308/77
f 309/309/78 310/310/78 311/311/78 312/312/78
g axis6
f 313/313/79 314/314/79 315/315/79 316/316/79
f 317/317/80 318/318/80 319/319/80 320/320/80
f 321/321/81 322/322/81 323/323/81 324/324/81
f 325/325/82 326/326/82 327/327/82 328/328/82
f 329/329/83 330/330/83 331/331/83 332/332/83
f 333/333/84 334/334/84 335/335/84 336/336/84
g lateral_left
f 337/337/85 338/338/85 339/339/85 340/340/85
f 341/341/86 342/342/86 343/343/86 344/344/86
f 345/345/87 346/346/87 347/347/87 348/348/87
f 349/349/88 350/350/88 351/351/88 352/352/88
f 353/353/89 354/354/89 355/355/89 356/356/89
f 357/357/90 358/358/90 359/359/90 360/360/90
g Connection_left2
f 361/361/91 362/362/91 363/363/91 364/364/91
f 365/365/92 366/366/92 367/367/92 368/368/92
f 369/369/93 370/370/93 371/371/93 372/372/93
f 373/373/94 374/374/94 375/375/94 376/376/94
f 377/377/95 378/378/95 379/379/95 380/380/95
f 381/381/96 382/382/96 383/383/96 384/384/96
g Connection_left3
f 385/385/97 386/386/97 387/387/97 388/388/97
f 389/389/98 390/390/98 391/391/98 392/392/98
f 393/393/99 394/394/99 395/395/99 396/396/99
f 397/397/100 398/398/100 399/399/100 400/400/100
f 401/401/101 402/402/101 403/403/101 404/404/101
f 405/405/102 406/406/102 407/407/102 408/408/102
g lateral_right
f 409/409/103 410/410/103 411/411/103 412/412/103
f 413/413/104 414/414/104 415/415/104 416/416/104
f 417/417/105 418/418/105 419/419/105 420/420/105
f 421/421/106 422/422/106 423/423/106 424/424/106
f 425/425/107 426/426/107 427/427/107 428/428/107
f 429/429/108 430/430/108 431/431/108 432/432/108
g Connection_right2
f 433/433/109 434/434/109 435/435/109 436/436/109
f 437/437/110 438/438/110 439/439/110 440/440/110
f 441/441/111 442/442/111 443/443/111 444/444/111
f 445/445/112 446/446/112 447/447/112 448/448/112
f 449/449/113 450/450/113 451/451/113 452/452/113
f 453/453/114 454/454/114 455/455/114 456/456/114
g Connection_right3
f 457/457/115 458/458/115 459/459/115 460/460/115
f 461/461/116 462/462/116 463/463/116 464/464/116
f 465/465/117 466/466/117 467/467/117 468/468/117
f 469/469/118 470/470/118 471/471/118 472/472/118
f 473/473/119 474/474/119 475/475/119 476/476/119
f 477/477/120 478/478/120 479/479/120 480/480/120
g belt
usemtl material_1_magneticraft_blocks_machines_conveyor_belt_anim
f 481/481/121 482/482/121 483/483/121 484/484/121
f 485/485/122 486/486/122 487/487/122 488/488/122
f 489/489/123 490/490/123 491/491/123 492/492/123
g Object_22
usemtl material_0_magneticraft_blocks_machines_conveyor_belt
f 493/493/124 494/494/124 495/495/124 496/496/124
f 497/497/125 498/498/125 499/499/125 500/500/125
f 501/501/126 502/502/126 503/503/126 504/504/126
