# Generated by scripts/convert_legacy_models.py; do not edit.
# Source: models/block/mcx/electric_furnace.mcx @ 4108ca9bb332d11965c30e0c592b310d0858f251
mtllib electric_furnace.mtl

v 1 0 0
v 1 0 1
v 0 0 1
v 0 0 0
vt 1 1
vt 1 0
vt 0 0
vt 0 1
vn 0 -1 0
v 0 1 1
v 1 1 1
v 1 1 0
v 0 1 0
vt 1 0
vt 0 0
vt 0 1
vt 1 1
vn 0 1 0
v 1 0 1
v 1 1 1
v 0 1 1
v 0 0 1
vt 1 1
vt 1 0
vt 0 0
vt 0 1
vn 0 0 1
v 0 0 1
v 0 1 1
v 0 1 0
v 0 0 0
vt 1 1
vt 1 0
vt 0 0
vt 0 1
vn -1 0 0
v 1 1 0
v 1 1 1
v 1 0 1
v 1 0 0
vt 1 0
vt 0 0
vt 0 1
vt 1 1
vn 1 0 0
v 0 1 0
v 1 1 0
v 1 0 0
v 0 0 0
vt 1 0
vt 0 0
vt 0 1
vt 1 1
vn 0 0 -1

g Shape_0
usemtl material_0_magneticraft_blocks_electric_machines_electric_furnace
f 1/1/1 2/2/1 3/3/1 4/4/1
f 5/5/2 6/6/2 7/7/2 8/8/2
f 9/9/3 10/10/3 11/11/3 12/12/3
f 13/13/4 14/14/4 15/15/4 16/16/4
f 17/17/5 18/18/5 19/19/5 20/20/5
g Shape_1
usemtl material_1_magneticraft_blocks_electric_machines_electric_furnace_front
f 21/21/6 22/22/6 23/23/6 24/24/6
