# Generated by scripts/convert_legacy_models.py; do not edit.
# Source: models/block/mcx/gasification_unit.mcx @ 4108ca9bb332d11965c30e0c592b310d0858f251
mtllib gasification_unit.mtl

v 0.9375 0 0.0625
v 0.9375 0 0.9375
v 0.0625 0 0.9375
v 0.0625 0 0.0625
vt 0.875 0.875
vt 0.875 0
vt 0 0
vt 0 0.875
vn 0 -1 0
v 0.0625 1 0.9375
v 0.9375 1 0.9375
v 0.9375 1 0.0625
v 0.0625 1 0.0625
vt 0.875 0
vt 0 0
vt 0 0.875
vt 0.875 0.875
vn 0 1 0
v 0.0625 1 0.0625
v 0.9375 1 0.0625
v 0.9375 0 0.0625
v 0.0625 0 0.0625
vt 0.875 0
vt 0 0
vt 0 1
vt 0.875 1
vn 0 0 -1
v 0.9375 0 0.9375
v 0.9375 1 0.9375
v 0.0625 1 0.9375
v 0.0625 0 0.9375
vt 0.875 1
vt 0.875 0
vt 0 0
vt 0 1
vn 0 0 1
v 0.0625 0 0.9375
v 0.0625 1 0.9375
v 0.0625 1 0.0625
v 0.0625 0 0.0625
vt 0.875 1
vt 0.875 0
vt 0 0
vt 0 1
vn -1 0 0
v 0.9375 1 0.0625
v 0.9375 1 0.9375
v 0.9375 0 0.9375
v 0.9375 0 0.0625
vt 0.875 0
vt 0 0
vt 0 1
vt 0.875 1
vn 1 0 0

g Shape_0
usemtl material_0_magneticraft_blocks_machines_gasification_unit_top
f 1/1/1 2/2/1 3/3/1 4/4/1
f 5/5/2 6/6/2 7/7/2 8/8/2
g Shape_1
usemtl material_1_magneticraft_blocks_machines_gasification_unit
f 9/9/3 10/10/3 11/11/3 12/12/3
f 13/13/4 14/14/4 15/15/4 16/16/4
f 17/17/5 18/18/5 19/19/5 20/20/5
f 21/21/6 22/22/6 23/23/6 24/24/6
