# Generated by scripts/convert_legacy_models.py; do not edit.
# Source: models/block/gltf/hydraulic_press.gltf @ 4108ca9bb332d11965c30e0c592b310d0858f251
mtllib hydraulic_press_moving_frame_0.mtl

v 0.59375 3.25 0.40625
v 0.59375 3.25 0.59375
v 0.40625 3.25 0.59375
vt 0.0703125 0.5234375
vt 0.0703125 0.5
vt 0.046875 0.5
vn 0 -1 0
v 0.59375 3.25 0.40625
v 0.40625 3.25 0.59375
v 0.40625 3.25 0.40625
vt 0.0703125 0.5234375
vt 0.046875 0.5
vt 0.046875 0.5234375
vn 0 -1 0
v 0.40625 5 0.59375
v 0.59375 5 0.59375
v 0.59375 5 0.40625
vt 0.0234375 0.5234375
vt 0.046875 0.5234375
vt 0.046875 0.5
vn 0 1 0
v 0.40625 5 0.59375
v 0.59375 5 0.40625
v 0.40625 5 0.40625
vt 0.0234375 0.5234375
vt 0.046875 0.5
vt 0.0234375 0.5
vn 0 1 0
v 0.40625 5 0.40625
v 0.59375 5 0.40625
v 0.59375 3.25 0.40625
vt 0.09375 0.5234375
vt 0.0703125 0.5234375
vt 0.0703125 0.7421875
vn 0 0 -1
v 0.40625 5 0.40625
v 0.59375 3.25 0.40625
v 0.40625 3.25 0.40625
vt 0.09375 0.5234375
vt 0.0703125 0.7421875
vt 0.09375 0.7421875
vn 0 0 -1
v 0.59375 3.25 0.59375
v 0.59375 5 0.59375
v 0.40625 5 0.59375
vt 0.046875 0.7421875
vt 0.046875 0.5234375
vt 0.0234375 0.5234375
vn 0 0 1
v 0.59375 3.25 0.59375
v 0.40625 5 0.59375
v 0.40625 3.25 0.59375
vt 0.046875 0.7421875
vt 0.0234375 0.5234375
vt 0.0234375 0.7421875
vn 0 0 1
v 0.40625 3.25 0.59375
v 0.40625 5 0.59375
v 0.40625 5 0.40625
vt 0.0234375 0.7421875
vt 0.0234375 0.5234375
vt 0 0.5234375
vn -1 0 0
v 0.40625 3.25 0.59375
v 0.40625 5 0.40625
v 0.40625 3.25 0.40625
vt 0.0234375 0.7421875
vt 0 0.5234375
vt 0 0.7421875
vn -1 0 0
v 0.59375 5 0.40625
v 0.59375 5 0.59375
v 0.59375 3.25 0.59375
vt 0.0703125 0.5234375
vt 0.046875 0.5234375
vt 0.046875 0.7421875
vn 1 0 0
v 0.59375 5 0.40625
v 0.59375 3.25 0.59375
v 0.59375 3.25 0.40625
vt 0.0703125 0.5234375
vt 0.046875 0.7421875
vt 0.0703125 0.7421875
vn 1 0 0
v 0.8125 2.375 0.1875
v 0.8125 2.375 0.8125
v 0.1875 2.375 0.8125
vt 0.234375 0.8359375
vt 0.234375 0.7578125
vt 0.15625 0.7578125
vn 0 -1 0
v 0.8125 2.375 0.1875
v 0.1875 2.375 0.8125
v 0.1875 2.375 0.1875
vt 0.234375 0.8359375
vt 0.15625 0.7578125
vt 0.15625 0.8359375
vn 0 -1 0
v 0.1875 3.25 0.8125
v 0.8125 3.25 0.8125
v 0.8125 3.25 0.1875
vt 0.078125 0.8359375
vt 0.15625 0.8359375
vt 0.15625 0.7578125
vn 0 1 0
v 0.1875 3.25 0.8125
v 0.8125 3.25 0.1875
v 0.1875 3.25 0.1875
vt 0.078125 0.8359375
vt 0.15625 0.7578125
vt 0.078125 0.7578125
vn 0 1 0
v 0.1875 3.25 0.1875
v 0.8125 3.25 0.1875
v 0.8125 2.375 0.1875
vt 0.3125 0.8359375
vt 0.234375 0.8359375
vt 0.234375 0.9453125
vn 0 0 -1
v 0.1875 3.25 0.1875
v 0.8125 2.375 0.1875
v 0.1875 2.375 0.1875
vt 0.3125 0.8359375
vt 0.234375 0.9453125
vt 0.3125 0.9453125
vn 0 0 -1
v 0.8125 2.375 0.8125
v 0.8125 3.25 0.8125
v 0.1875 3.25 0.8125
vt 0.15625 0.9453125
vt 0.15625 0.8359375
vt 0.078125 0.8359375
vn 0 0 1
v 0.8125 2.375 0.8125
v 0.1875 3.25 0.8125
v 0.1875 2.375 0.8125
vt 0.15625 0.9453125
vt 0.078125 0.8359375
vt 0.078125 0.9453125
vn 0 0 1
v 0.1875 2.375 0.8125
v 0.1875 3.25 0.8125
v 0.1875 3.25 0.1875
vt 0.078125 0.9453125
vt 0.078125 0.8359375
vt 0 0.8359375
vn -1 0 0
v 0.1875 2.375 0.8125
v 0.1875 3.25 0.1875
v 0.1875 2.375 0.1875
vt 0.078125 0.9453125
vt 0 0.8359375
vt 0 0.9453125
vn -1 0 0
v 0.8125 3.25 0.1875
v 0.8125 3.25 0.8125
v 0.8125 2.375 0.8125
vt 0.234375 0.8359375
vt 0.15625 0.8359375
vt 0.15625 0.9453125
vn 1 0 0
v 0.8125 3.25 0.1875
v 0.8125 2.375 0.8125
v 0.8125 2.375 0.1875
vt 0.234375 0.8359375
vt 0.15625 0.9453125
vt 0.234375 0.9453125
vn 1 0 0

g Rod_0_0
usemtl material_0_magneticraft_blocks_multiblocks_hydraulic_press
f 1/1/1 2/2/1 3/3/1
f 4/4/2 5/5/2 6/6/2
f 7/7/3 8/8/3 9/9/3
f 10/10/4 11/11/4 12/12/4
f 13/13/5 14/14/5 15/15/5
f 16/16/6 17/17/6 18/18/6
f 19/19/7 20/20/7 21/21/7
f 22/22/8 23/23/8 24/24/8
f 25/25/9 26/26/9 27/27/9
f 28/28/10 29/29/10 30/30/10
f 31/31/11 32/32/11 33/33/11
f 34/34/12 35/35/12 36/36/12
g Head_1_0
f 37/37/13 38/38/13 39/39/13
f 40/40/14 41/41/14 42/42/14
f 43/43/15 44/44/15 45/45/15
f 46/46/16 47/47/16 48/48/16
f 49/49/17 50/50/17 51/51/17
f 52/52/18 53/53/18 54/54/18
f 55/55/19 56/56/19 57/57/19
f 58/58/20 59/59/20 60/60/20
f 61/61/21 62/62/21 63/63/21
f 64/64/22 65/65/22 66/66/22
f 67/67/23 68/68/23 69/69/23
f 70/70/24 71/71/24 72/72/24
