# Generated by scripts/convert_legacy_models.py; do not edit.
# Source: models/block/mcx/mining_robot.mcx @ 4108ca9bb332d11965c30e0c592b310d0858f251
mtllib mining_robot_drill.mtl

v 0.6875 0.3125 0.625
v 0.6875 0.3125 0.75
v 0.3125 0.3125 0.75
v 0.3125 0.3125 0.625
vt 0.71875 0.03125
vt 0.71875 0
vt 0.625 0
vt 0.625 0.03125
vn 0 -1 0
v 0.3125 0.6875 0.75
v 0.6875 0.6875 0.75
v 0.6875 0.6875 0.625
v 0.3125 0.6875 0.625
vt 0.53125 0.03125
vt 0.625 0.03125
vt 0.625 0
vt 0.53125 0
vn 0 1 0
v 0.3125 0.6875 0.625
v 0.6875 0.6875 0.625
v 0.6875 0.3125 0.625
v 0.3125 0.3125 0.625
vt 0.75 0.03125
vt 0.65625 0.03125
vt 0.65625 0.125
vt 0.75 0.125
vn 0 0 -1
v 0.6875 0.3125 0.75
v 0.6875 0.6875 0.75
v 0.3125 0.6875 0.75
v 0.3125 0.3125 0.75
vt 0.625 0.125
vt 0.625 0.03125
vt 0.53125 0.03125
vt 0.53125 0.125
vn 0 0 1
v 0.3125 0.3125 0.75
v 0.3125 0.6875 0.75
v 0.3125 0.6875 0.625
v 0.3125 0.3125 0.625
vt 0.53125 0.125
vt 0.53125 0.03125
vt 0.5 0.03125
vt 0.5 0.125
vn -1 0 0
v 0.6875 0.6875 0.625
v 0.6875 0.6875 0.75
v 0.6875 0.3125 0.75
v 0.6875 0.3125 0.625
vt 0.65625 0.03125
vt 0.625 0.03125
vt 0.625 0.125
vt 0.65625 0.125
vn 1 0 0
v 0.65625 0.34375 0.75
v 0.65625 0.34375 0.8125
v 0.34375 0.34375 0.8125
v 0.34375 0.34375 0.75
vt 0.671875 0.15625
vt 0.671875 0.140625
vt 0.59375 0.140625
vt 0.59375 0.15625
vn 0 -1 0
v 0.34375 0.65625 0.8125
v 0.65625 0.65625 0.8125
v 0.65625 0.65625 0.75
v 0.34375 0.65625 0.75
vt 0.515625 0.15625
vt 0.59375 0.15625
vt 0.59375 0.140625
vt 0.515625 0.140625
vn 0 1 0
v 0.34375 0.65625 0.75
v 0.65625 0.65625 0.75
v 0.65625 0.34375 0.75
v 0.34375 0.34375 0.75
vt 0.6875 0.15625
vt 0.609375 0.15625
vt 0.609375 0.234375
vt 0.6875 0.234375
vn 0 0 -1
v 0.65625 0.34375 0.8125
v 0.65625 0.65625 0.8125
v 0.34375 0.65625 0.8125
v 0.34375 0.34375 0.8125
vt 0.59375 0.234375
vt 0.59375 0.15625
vt 0.515625 0.15625
vt 0.515625 0.234375
vn 0 0 1
v 0.34375 0.34375 0.8125
v 0.34375 0.65625 0.8125
v 0.34375 0.65625 0.75
v 0.34375 0.34375 0.75
vt 0.515625 0.234375
vt 0.515625 0.15625
vt 0.5 0.15625
vt 0.5 0.234375
vn -1 0 0
v 0.65625 0.65625 0.75
v 0.65625 0.65625 0.8125
v 0.65625 0.34375 0.8125
v 0.65625 0.34375 0.75
vt 0.609375 0.15625
vt 0.59375 0.15625
vt 0.59375 0.234375
vt 0.609375 0.234375
vn 1 0 0
v 0.625 0.375 0.8125
v 0.625 0.375 0.875
v 0.375 0.375 0.875
v 0.375 0.375 0.8125
vt 0.640625 0.265625
vt 0.640625 0.25
vt 0.578125 0.25
vt 0.578125 0.265625
vn 0 -1 0
v 0.375 0.625 0.875
v 0.625 0.625 0.875
v 0.625 0.625 0.8125
v 0.375 0.625 0.8125
vt 0.515625 0.265625
vt 0.578125 0.265625
vt 0.578125 0.25
vt 0.515625 0.25
vn 0 1 0
v 0.375 0.625 0.8125
v 0.625 0.625 0.8125
v 0.625 0.375 0.8125
v 0.375 0.375 0.8125
vt 0.65625 0.265625
vt 0.59375 0.265625
vt 0.59375 0.328125
vt 0.65625 0.328125
vn 0 0 -1
v 0.625 0.375 0.875
v 0.625 0.625 0.875
v 0.375 0.625 0.875
v 0.375 0.375 0.875
vt 0.578125 0.328125
vt 0.578125 0.265625
vt 0.515625 0.265625
vt 0.515625 0.328125
vn 0 0 1
v 0.375 0.375 0.875
v 0.375 0.625 0.875
v 0.375 0.625 0.8125
v 0.375 0.375 0.8125
vt 0.515625 0.328125
vt 0.515625 0.265625
vt 0.5 0.265625
vt 0.5 0.328125
vn -1 0 0
v 0.625 0.625 0.8125
v 0.625 0.625 0.875
v 0.625 0.375 0.875
v 0.625 0.375 0.8125
vt 0.59375 0.265625
vt 0.578125 0.265625
vt 0.578125 0.328125
vt 0.59375 0.328125
vn 1 0 0
v 0.59375 0.40625 0.875
v 0.59375 0.40625 0.9375
v 0.40625 0.40625 0.9375
v 0.40625 0.40625 0.875
vt 0.875 0.015625
vt 0.875 0
vt 0.828125 0
vt 0.828125 0.015625
vn 0 -1 0
v 0.40625 0.59375 0.9375
v 0.59375 0.59375 0.9375
v 0.59375 0.59375 0.875
v 0.40625 0.59375 0.875
vt 0.78125 0.015625
vt 0.828125 0.015625
vt 0.828125 0
vt 0.78125 0
vn 0 1 0
v 0.40625 0.59375 0.875
v 0.59375 0.59375 0.875
v 0.59375 0.40625 0.875
v 0.40625 0.40625 0.875
vt 0.890625 0.015625
vt 0.84375 0.015625
vt 0.84375 0.0625
vt 0.890625 0.0625
vn 0 0 -1
v 0.59375 0.40625 0.9375
v 0.59375 0.59375 0.9375
v 0.40625 0.59375 0.9375
v 0.40625 0.40625 0.9375
vt 0.828125 0.0625
vt 0.828125 0.015625
vt 0.78125 0.015625
vt 0.78125 0.0625
vn 0 0 1
v 0.40625 0.40625 0.9375
v 0.40625 0.59375 0.9375
v 0.40625 0.59375 0.875
v 0.40625 0.40625 0.875
vt 0.78125 0.0625
vt 0.78125 0.015625
vt 0.765625 0.015625
vt 0.765625 0.0625
vn -1 0 0
v 0.59375 0.59375 0.875
v 0.59375 0.59375 0.9375
v 0.59375 0.40625 0.9375
v 0.59375 0.40625 0.875
vt 0.84375 0.015625
vt 0.828125 0.015625
vt 0.828125 0.0625
vt 0.84375 0.0625
vn 1 0 0
v 0.5625 0.4375 0.9375
v 0.5625 0.4375 1
v 0.4375 0.4375 1
v 0.4375 0.4375 0.9375
vt 0.84375 0.09375
vt 0.84375 0.078125
vt 0.8125 0.078125
vt 0.8125 0.09375
vn 0 -1 0
v 0.4375 0.5625 1
v 0.5625 0.5625 1
v 0.5625 0.5625 0.9375
v 0.4375 0.5625 0.9375
vt 0.78125 0.09375
vt 0.8125 0.09375
vt 0.8125 0.078125
vt 0.78125 0.078125
vn 0 1 0
v 0.4375 0.5625 0.9375
v 0.5625 0.5625 0.9375
v 0.5625 0.4375 0.9375
v 0.4375 0.4375 0.9375
vt 0.859375 0.09375
vt 0.828125 0.09375
vt 0.828125 0.125
vt 0.859375 0.125
vn 0 0 -1
v 0.5625 0.4375 1
v 0.5625 0.5625 1
v 0.4375 0.5625 1
v 0.4375 0.4375 1
vt 0.8125 0.125
vt 0.8125 0.09375
vt 0.78125 0.09375
vt 0.78125 0.125
vn 0 0 1
v 0.4375 0.4375 1
v 0.4375 0.5625 1
v 0.4375 0.5625 0.9375
v 0.4375 0.4375 0.9375
vt 0.78125 0.125
vt 0.78125 0.09375
vt 0.765625 0.09375
vt 0.765625 0.125
vn -1 0 0
v 0.5625 0.5625 0.9375
v 0.5625 0.5625 1
v 0.5625 0.4375 1
v 0.5625 0.4375 0.9375
vt 0.828125 0.09375
vt 0.8125 0.09375
vt 0.8125 0.125
vt 0.828125 0.125
vn 1 0 0

g drill1
usemtl material_0_magneticraft_blocks_computers_mining_robot
f 1/1/1 2/2/1 3/3/1 4/4/1
f 5/5/2 6/6/2 7/7/2 8/8/2
f 9/9/3 10/10/3 11/11/3 12/12/3
f 13/13/4 14/14/4 15/15/4 16/16/4
f 17/17/5 18/18/5 19/19/5 20/20/5
f 21/21/6 22/22/6 23/23/6 24/24/6
g drill2
f 25/25/7 26/26/7 27/27/7 28/28/7
f 29/29/8 30/30/8 31/31/8 32/32/8
f 33/33/9 34/34/9 35/35/9 36/36/9
f 37/37/10 38/38/10 39/39/10 40/40/10
f 41/41/11 42/42/11 43/43/11 44/44/11
f 45/45/12 46/46/12 47/47/12 48/48/12
g drill3
f 49/49/13 50/50/13 51/51/13 52/52/13
f 53/53/14 54/54/14 55/55/14 56/56/14
f 57/57/15 58/58/15 59/59/15 60/60/15
f 61/61/16 62/62/16 63/63/16 64/64/16
f 65/65/17 66/66/17 67/67/17 68/68/17
f 69/69/18 70/70/18 71/71/18 72/72/18
g drill4
f 73/73/19 74/74/19 75/75/19 76/76/19
f 77/77/20 78/78/20 79/79/20 80/80/20
f 81/81/21 82/82/21 83/83/21 84/84/21
f 85/85/22 86/86/22 87/87/22 88/88/22
f 89/89/23 90/90/23 91/91/23 92/92/23
f 93/93/24 94/94/24 95/95/24 96/96/24
g drill5
f 97/97/25 98/98/25 99/99/25 100/100/25
f 101/101/26 102/102/26 103/103/26 104/104/26
f 105/105/27 106/106/27 107/107/27 108/108/27
f 109/109/28 110/110/28 111/111/28 112/112/28
f 113/113/29 114/114/29 115/115/29 116/116/29
f 117/117/30 118/118/30 119/119/30 120/120/30
