# Generated by scripts/convert_legacy_models.py; do not edit.
# Source: models/block/mcx/mining_robot.mcx @ 4108ca9bb332d11965c30e0c592b310d0858f251
mtllib mining_robot_propellers.mtl

v 1 0.0625 0.40625
v 1 0.0625 0.59375
v 0.8125 0.0625 0.59375
v 0.8125 0.0625 0.40625
vt 0.453125 0.3125
vt 0.453125 0.265625
vt 0.40625 0.265625
vt 0.40625 0.3125
vn 0 -1 0
v 0.8125 0.625 0.59375
v 1 0.625 0.59375
v 1 0.625 0.40625
v 0.8125 0.625 0.40625
vt 0.359375 0.3125
vt 0.40625 0.3125
vt 0.40625 0.265625
vt 0.359375 0.265625
vn 0 1 0
v 0.8125 0.625 0.40625
v 1 0.625 0.40625
v 1 0.0625 0.40625
v 0.8125 0.0625 0.40625
vt 0.5 0.3125
vt 0.453125 0.3125
vt 0.453125 0.453125
vt 0.5 0.453125
vn 0 0 -1
v 1 0.0625 0.59375
v 1 0.625 0.59375
v 0.8125 0.625 0.59375
v 0.8125 0.0625 0.59375
vt 0.40625 0.453125
vt 0.40625 0.3125
vt 0.359375 0.3125
vt 0.359375 0.453125
vn 0 0 1
v 0.8125 0.0625 0.59375
v 0.8125 0.625 0.59375
v 0.8125 0.625 0.40625
v 0.8125 0.0625 0.40625
vt 0.359375 0.453125
vt 0.359375 0.3125
vt 0.3125 0.3125
vt 0.3125 0.453125
vn -1 0 0
v 1 0.625 0.40625
v 1 0.625 0.59375
v 1 0.0625 0.59375
v 1 0.0625 0.40625
vt 0.453125 0.3125
vt 0.40625 0.3125
vt 0.40625 0.453125
vt 0.453125 0.453125
vn 1 0 0
v 0.1875 0.0625 0.40625
v 0.1875 0.0625 0.59375
v 0 0.0625 0.59375
v 0 0.0625 0.40625
vt 0.453125 0.3125
vt 0.453125 0.265625
vt 0.40625 0.265625
vt 0.40625 0.3125
vn 0 -1 0
v 0 0.625 0.59375
v 0.1875 0.625 0.59375
v 0.1875 0.625 0.40625
v 0 0.625 0.40625
vt 0.359375 0.3125
vt 0.40625 0.3125
vt 0.40625 0.265625
vt 0.359375 0.265625
vn 0 1 0
v 0 0.625 0.40625
v 0.1875 0.625 0.40625
v 0.1875 0.0625 0.40625
v 0 0.0625 0.40625
vt 0.5 0.3125
vt 0.453125 0.3125
vt 0.453125 0.453125
vt 0.5 0.453125
vn 0 0 -1
v 0.1875 0.0625 0.59375
v 0.1875 0.625 0.59375
v 0 0.625 0.59375
v 0 0.0625 0.59375
vt 0.40625 0.453125
vt 0.40625 0.3125
vt 0.359375 0.3125
vt 0.359375 0.453125
vn 0 0 1
v 0 0.0625 0.59375
v 0 0.625 0.59375
v 0 0.625 0.40625
v 0 0.0625 0.40625
vt 0.359375 0.453125
vt 0.359375 0.3125
vt 0.3125 0.3125
vt 0.3125 0.453125
vn -1 0 0
v 0.1875 0.625 0.40625
v 0.1875 0.625 0.59375
v 0.1875 0.0625 0.59375
v 0.1875 0.0625 0.40625
vt 0.453125 0.3125
vt 0.40625 0.3125
vt 0.40625 0.453125
vt 0.453125 0.453125
vn 1 0 0

g prop1
usemtl material_0_magneticraft_blocks_computers_mining_robot
f 1/1/1 2/2/1 3/3/1 4/4/1
f 5/5/2 6/6/2 7/7/2 8/8/2
f 9/9/3 10/10/3 11/11/3 12/12/3
f 13/13/4 14/14/4 15/15/4 16/16/4
f 17/17/5 18/18/5 19/19/5 20/20/5
f 21/21/6 22/22/6 23/23/6 24/24/6
g prop2
f 25/25/7 26/26/7 27/27/7 28/28/7
f 29/29/8 30/30/8 31/31/8 32/32/8
f 33/33/9 34/34/9 35/35/9 36/36/9
f 37/37/10 38/38/10 39/39/10 40/40/10
f 41/41/11 42/42/11 43/43/11 44/44/11
f 45/45/12 46/46/12 47/47/12 48/48/12
