# Generated by scripts/convert_legacy_models.py; do not edit.
# Source: models/block/mcx/small_tank.mcx @ 4108ca9bb332d11965c30e0c592b310d0858f251
mtllib small_tank.mtl

v 0 1 1
v 1 1 1
v 1 1 0
v 0 1 0
vt 0 1
vt 1 1
vt 1 0
vt 0 0
vn 0 1 0
v 0 1 0
v 1 1 0
v 1 0.0625 0
v 0 0.0625 0
vt 1 0
vt 0 0
vt 0 0.9375
vt 1 0.9375
vn 0 0 -1
v 1 0.0625 1
v 1 1 1
v 0 1 1
v 0 0.0625 1
vt 1 0.9375
vt 1 0
vt 0 0
vt 0 0.9375
vn 0 0 1
v 0 0.0625 1
v 0 1 1
v 0 1 0
v 0 0.0625 0
vt 1 0.9375
vt 1 0
vt 0 0
vt 0 0.9375
vn -1 0 0
v 1 1 0
v 1 1 1
v 1 0.0625 1
v 1 0.0625 0
vt 1 0
vt 0 0
vt 0 0.9375
vt 1 0.9375
vn 1 0 0
v 1 0 0
v 1 0 1
v 0 0 1
v 0 0 0
vt 1 1
vt 1 0
vt 0 0
vt 0 1
vn 0 -1 0
v 0 0.0625 1
v 1 0.0625 1
v 1 0.0625 0
v 0 0.0625 0
vt 0 1
vt 1 1
vt 1 0
vt 0 0
vn 0 1 0
v 0 0.0625 0
v 1 0.0625 0
v 1 0 0
v 0 0 0
vt 1 0
vt 0 0
vt 0 0.0625
vt 1 0.0625
vn 0 0 -1
v 1 0 1
v 1 0.0625 1
v 0 0.0625 1
v 0 0 1
vt 1 0.0625
vt 1 0
vt 0 0
vt 0 0.0625
vn 0 0 1
v 0 0 1
v 0 0.0625 1
v 0 0.0625 0
v 0 0 0
vt 1 1
vt 1 0.9375
vt 0 0.9375
vt 0 1
vn -1 0 0
v 1 0.0625 0
v 1 0.0625 1
v 1 0 1
v 1 0 0
vt 1 0.9375
vt 0 0.9375
vt 0 1
vt 1 1
vn 1 0 0

g top
usemtl material_0_magneticraft_blocks_fluid_machines_small_tank
f 1/1/1 2/2/1 3/3/1 4/4/1
f 5/5/2 6/6/2 7/7/2 8/8/2
f 9/9/3 10/10/3 11/11/3 12/12/3
f 13/13/4 14/14/4 15/15/4 16/16/4
f 17/17/5 18/18/5 19/19/5 20/20/5
g base
usemtl material_1_magneticraft_blocks_fluid_machines_small_tank_in
f 21/21/6 22/22/6 23/23/6 24/24/6
f 25/25/7 26/26/7 27/27/7 28/28/7
f 29/29/8 30/30/8 31/31/8 32/32/8
f 33/33/9 34/34/9 35/35/9 36/36/9
f 37/37/10 38/38/10 39/39/10 40/40/10
f 41/41/11 42/42/11 43/43/11 44/44/11
