# Generated by scripts/convert_legacy_models.py; do not edit.
# Source: models/block/gltf/steam_turbine.gltf @ 4108ca9bb332d11965c30e0c592b310d0858f251
mtllib steam_turbine_blades.mtl

v 1.428003006 1.625 -3.783119954
v 1.626722732 1.625 -3.465101919
v 1.573719726 1.625 -3.431981965
vt 0.62109375 0.515625
vt 0.62109375 0.4921875
vt 0.6171875 0.4921875
vn 0 -1 0
v 1.428003006 1.625 -3.783119954
v 1.573719726 1.625 -3.431981965
v 1.375 1.625 -3.75
vt 0.62109375 0.515625
vt 0.6171875 0.4921875
vt 0.6171875 0.515625
vn 0 -1 0
v 1.573719726 2.8125 -3.431981965
v 1.626722732 2.8125 -3.465101919
v 1.428003006 2.8125 -3.783119954
vt 0.61328125 0.515625
vt 0.6171875 0.515625
vt 0.6171875 0.4921875
vn 0 1 0
v 1.573719726 2.8125 -3.431981965
v 1.428003006 2.8125 -3.783119954
v 1.375 2.8125 -3.75
vt 0.61328125 0.515625
vt 0.6171875 0.4921875
vt 0.61328125 0.4921875
vn 0 1 0
v 1.375 2.8125 -3.75
v 1.428003006 2.8125 -3.783119954
v 1.428003006 1.625 -3.783119954
vt 0.64453125 0.515625
vt 0.640625 0.515625
vt 0.640625 0.58984375
vn -0.529919269 0 -0.848048093
v 1.375 2.8125 -3.75
v 1.428003006 1.625 -3.783119954
v 1.375 1.625 -3.75
vt 0.64453125 0.515625
vt 0.640625 0.58984375
vt 0.64453125 0.58984375
vn -0.529919269 0 -0.848048093
v 1.626722732 1.625 -3.465101919
v 1.626722732 2.8125 -3.465101919
v 1.573719726 2.8125 -3.431981965
vt 0.6171875 0.58984375
vt 0.6171875 0.515625
vt 0.61328125 0.515625
vn 0.529919269 0 0.848048093
v 1.626722732 1.625 -3.465101919
v 1.573719726 2.8125 -3.431981965
v 1.573719726 1.625 -3.431981965
vt 0.6171875 0.58984375
vt 0.61328125 0.515625
vt 0.61328125 0.58984375
vn 0.529919269 0 0.848048093
v 1.573719726 1.625 -3.431981965
v 1.573719726 2.8125 -3.431981965
v 1.375 2.8125 -3.75
vt 0.61328125 0.58984375
vt 0.61328125 0.515625
vt 0.58984375 0.515625
vn -0.848048093 0 0.529919269
v 1.573719726 1.625 -3.431981965
v 1.375 2.8125 -3.75
v 1.375 1.625 -3.75
vt 0.61328125 0.58984375
vt 0.58984375 0.515625
vt 0.58984375 0.58984375
vn -0.848048093 0 0.529919269
v 1.428003006 2.8125 -3.783119954
v 1.626722732 2.8125 -3.465101919
v 1.626722732 1.625 -3.465101919
vt 0.640625 0.515625
vt 0.6171875 0.515625
vt 0.6171875 0.58984375
vn 0.848048093 0 -0.529919269
v 1.428003006 2.8125 -3.783119954
v 1.626722732 1.625 -3.465101919
v 1.428003006 1.625 -3.783119954
vt 0.640625 0.515625
vt 0.6171875 0.58984375
vt 0.640625 0.58984375
vn 0.848048093 0 -0.529919269

g blade1_0_0
usemtl material_0_magneticraft_blocks_multiblocks_steam_turbine
f 1/1/1 2/2/1 3/3/1
f 4/4/2 5/5/2 6/6/2
f 7/7/3 8/8/3 9/9/3
f 10/10/4 11/11/4 12/12/4
f 13/13/5 14/14/5 15/15/5
f 16/16/6 17/17/6 18/18/6
f 19/19/7 20/20/7 21/21/7
f 22/22/8 23/23/8 24/24/8
f 25/25/9 26/26/9 27/27/9
f 28/28/10 29/29/10 30/30/10
f 31/31/11 32/32/11 33/33/11
f 34/34/12 35/35/12 36/36/12
