# Generated by scripts/convert_legacy_models.py; do not edit.
# Source: models/block/gltf/tesla_tower.gltf @ 4108ca9bb332d11965c30e0c592b310d0858f251
mtllib tesla_tower.mtl

v 0.75 0.1875 0.25
v 0.75 0.1875 0.75
v 0.25 0.1875 0.75
vt 0.5625 0.0625
vt 0.5625 0
vt 0.5 0
vn 0 -1 0
v 0.75 0.1875 0.25
v 0.25 0.1875 0.75
v 0.25 0.1875 0.25
vt 0.5625 0.0625
vt 0.5 0
vt 0.5 0.0625
vn 0 -1 0
v 0.25 2.8125 0.75
v 0.75 2.8125 0.75
v 0.75 2.8125 0.25
vt 0.4375 0.0625
vt 0.5 0.0625
vt 0.5 0
vn 0 1 0
v 0.25 2.8125 0.75
v 0.75 2.8125 0.25
v 0.25 2.8125 0.25
vt 0.4375 0.0625
vt 0.5 0
vt 0.4375 0
vn 0 1 0
v 0.25 2.8125 0.25
v 0.75 2.8125 0.25
v 0.75 0.1875 0.25
vt 0.625 0.0625
vt 0.5625 0.0625
vt 0.5625 0.390625
vn 0 0 -1
v 0.25 2.8125 0.25
v 0.75 0.1875 0.25
v 0.25 0.1875 0.25
vt 0.625 0.0625
vt 0.5625 0.390625
vt 0.625 0.390625
vn 0 0 -1
v 0.75 0.1875 0.75
v 0.75 2.8125 0.75
v 0.25 2.8125 0.75
vt 0.5 0.390625
vt 0.5 0.0625
vt 0.4375 0.0625
vn 0 0 1
v 0.75 0.1875 0.75
v 0.25 2.8125 0.75
v 0.25 0.1875 0.75
vt 0.5 0.390625
vt 0.4375 0.0625
vt 0.4375 0.390625
vn 0 0 1
v 0.25 0.1875 0.75
v 0.25 2.8125 0.75
v 0.25 2.8125 0.25
vt 0.4375 0.390625
vt 0.4375 0.0625
vt 0.375 0.0625
vn -1 0 0
v 0.25 0.1875 0.75
v 0.25 2.8125 0.25
v 0.25 0.1875 0.25
vt 0.4375 0.390625
vt 0.375 0.0625
vt 0.375 0.390625
vn -1 0 0
v 0.75 2.8125 0.25
v 0.75 2.8125 0.75
v 0.75 0.1875 0.75
vt 0.5625 0.0625
vt 0.5 0.0625
vt 0.5 0.390625
vn 1 0 0
v 0.75 2.8125 0.25
v 0.75 0.1875 0.75
v 0.75 0.1875 0.25
vt 0.5625 0.0625
vt 0.5 0.390625
vt 0.5625 0.390625
vn 1 0 0
v 0.875 0.3125 0.125
v 0.875 0.3125 0.875
v 0.125 0.3125 0.875
vt 0.28125 0.09375
vt 0.28125 0
vt 0.1875 0
vn 0 -1 0
v 0.875 0.3125 0.125
v 0.125 0.3125 0.875
v 0.125 0.3125 0.125
vt 0.28125 0.09375
vt 0.1875 0
vt 0.1875 0.09375
vn 0 -1 0
v 0.125 2.6875 0.875
v 0.875 2.6875 0.875
v 0.875 2.6875 0.125
vt 0.09375 0.09375
vt 0.1875 0.09375
vt 0.1875 0
vn 0 1 0
v 0.125 2.6875 0.875
v 0.875 2.6875 0.125
v 0.125 2.6875 0.125
vt 0.09375 0.09375
vt 0.1875 0
vt 0.09375 0
vn 0 1 0
v 0.125 2.6875 0.125
v 0.875 2.6875 0.125
v 0.875 0.3125 0.125
vt 0.375 0.09375
vt 0.28125 0.09375
vt 0.28125 0.390625
vn 0 0 -1
v 0.125 2.6875 0.125
v 0.875 0.3125 0.125
v 0.125 0.3125 0.125
vt 0.375 0.09375
vt 0.28125 0.390625
vt 0.375 0.390625
vn 0 0 -1
v 0.875 0.3125 0.875
v 0.875 2.6875 0.875
v 0.125 2.6875 0.875
vt 0.1875 0.390625
vt 0.1875 0.09375
vt 0.09375 0.09375
vn 0 0 1
v 0.875 0.3125 0.875
v 0.125 2.6875 0.875
v 0.125 0.3125 0.875
vt 0.1875 0.390625
vt 0.09375 0.09375
vt 0.09375 0.390625
vn 0 0 1
v 0.125 0.3125 0.875
v 0.125 2.6875 0.875
v 0.125 2.6875 0.125
vt 0.09375 0.390625
vt 0.09375 0.09375
vt 0 0.09375
vn -1 0 0
v 0.125 0.3125 0.875
v 0.125 2.6875 0.125
v 0.125 0.3125 0.125
vt 0.09375 0.390625
vt 0 0.09375
vt 0 0.390625
vn -1 0 0
v 0.875 2.6875 0.125
v 0.875 2.6875 0.875
v 0.875 0.3125 0.875
vt 0.28125 0.09375
vt 0.1875 0.09375
vt 0.1875 0.390625
vn 1 0 0
v 0.875 2.6875 0.125
v 0.875 0.3125 0.875
v 0.875 0.3125 0.125
vt 0.28125 0.09375
vt 0.1875 0.390625
vt 0.28125 0.390625
vn 1 0 0
v 0.9375 2.8125 0.0625
v 0.9375 2.8125 0.9375
v 0.0625 2.8125 0.9375
vt 0.328125 0.6484375
vt 0.328125 0.5390625
vt 0.21875 0.5390625
vn 0 -1 0
v 0.9375 2.8125 0.0625
v 0.0625 2.8125 0.9375
v 0.0625 2.8125 0.0625
vt 0.328125 0.6484375
vt 0.21875 0.5390625
vt 0.21875 0.6484375
vn 0 -1 0
v 0.0625 3 0.9375
v 0.9375 3 0.9375
v 0.9375 3 0.0625
vt 0.109375 0.6484375
vt 0.21875 0.6484375
vt 0.21875 0.5390625
vn 0 1 0
v 0.0625 3 0.9375
v 0.9375 3 0.0625
v 0.0625 3 0.0625
vt 0.109375 0.6484375
vt 0.21875 0.5390625
vt 0.109375 0.5390625
vn 0 1 0
v 0.0625 3 0.0625
v 0.9375 3 0.0625
v 0.9375 2.8125 0.0625
vt 0.4375 0.6484375
vt 0.328125 0.6484375
vt 0.328125 0.671875
vn 0 0 -1
v 0.0625 3 0.0625
v 0.9375 2.8125 0.0625
v 0.0625 2.8125 0.0625
vt 0.4375 0.6484375
vt 0.328125 0.671875
vt 0.4375 0.671875
vn 0 0 -1
v 0.9375 2.8125 0.9375
v 0.9375 3 0.9375
v 0.0625 3 0.9375
vt 0.21875 0.671875
vt 0.21875 0.6484375
vt 0.109375 0.6484375
vn 0 0 1
v 0.9375 2.8125 0.9375
v 0.0625 3 0.9375
v 0.0625 2.8125 0.9375
vt 0.21875 0.671875
vt 0.109375 0.6484375
vt 0.109375 0.671875
vn 0 0 1
v 0.0625 2.8125 0.9375
v 0.0625 3 0.9375
v 0.0625 3 0.0625
vt 0.109375 0.671875
vt 0.109375 0.6484375
vt 0 0.6484375
vn -1 0 0
v 0.0625 2.8125 0.9375
v 0.0625 3 0.0625
v 0.0625 2.8125 0.0625
vt 0.109375 0.671875
vt 0 0.6484375
vt 0 0.671875
vn -1 0 0
v 0.9375 3 0.0625
v 0.9375 3 0.9375
v 0.9375 2.8125 0.9375
vt 0.328125 0.6484375
vt 0.21875 0.6484375
vt 0.21875 0.671875
vn 1 0 0
v 0.9375 3 0.0625
v 0.9375 2.8125 0.9375
v 0.9375 2.8125 0.0625
vt 0.328125 0.6484375
vt 0.21875 0.671875
vt 0.328125 0.671875
vn 1 0 0
v 1 0 0
v 1 0 1
v 0 0 1
vt 0.375 0.515625
vt 0.375 0.390625
vt 0.25 0.390625
vn 0 -1 0
v 1 0 0
v 0 0 1
v 0 0 0
vt 0.375 0.515625
vt 0.25 0.390625
vt 0.25 0.515625
vn 0 -1 0
v 0 0.1875 1
v 1 0.1875 1
v 1 0.1875 0
vt 0.125 0.515625
vt 0.25 0.515625
vt 0.25 0.390625
vn 0 1 0
v 0 0.1875 1
v 1 0.1875 0
v 0 0.1875 0
vt 0.125 0.515625
vt 0.25 0.390625
vt 0.125 0.390625
vn 0 1 0
v 0 0.1875 0
v 1 0.1875 0
v 1 0 0
vt 0.5 0.515625
vt 0.375 0.515625
vt 0.375 0.5390625
vn 0 0 -1
v 0 0.1875 0
v 1 0 0
v 0 0 0
vt 0.5 0.515625
vt 0.375 0.5390625
vt 0.5 0.5390625
vn 0 0 -1
v 1 0 1
v 1 0.1875 1
v 0 0.1875 1
vt 0.25 0.5390625
vt 0.25 0.515625
vt 0.125 0.515625
vn 0 0 1
v 1 0 1
v 0 0.1875 1
v 0 0 1
vt 0.25 0.5390625
vt 0.125 0.515625
vt 0.125 0.5390625
vn 0 0 1
v 0 0 1
v 0 0.1875 1
v 0 0.1875 0
vt 0.125 0.5390625
vt 0.125 0.515625
vt 0 0.515625
vn -1 0 0
v 0 0 1
v 0 0.1875 0
v 0 0 0
vt 0.125 0.5390625
vt 0 0.515625
vt 0 0.5390625
vn -1 0 0
v 1 0.1875 0
v 1 0.1875 1
v 1 0 1
vt 0.375 0.515625
vt 0.25 0.515625
vt 0.25 0.5390625
vn 1 0 0
v 1 0.1875 0
v 1 0 1
v 1 0 0
vt 0.375 0.515625
vt 0.25 0.5390625
vt 0.375 0.5390625
vn 1 0 0

g Object_4_0_0
usemtl material_0_magneticraft_blocks_electric_connectors_tesla_tower
f 1/1/1 2/2/1 3/3/1
f 4/4/2 5/5/2 6/6/2
f 7/7/3 8/8/3 9/9/3
f 10/10/4 11/11/4 12/12/4
f 13/13/5 14/14/5 15/15/5
f 16/16/6 17/17/6 18/18/6
f 19/19/7 20/20/7 21/21/7
f 22/22/8 23/23/8 24/24/8
f 25/25/9 26/26/9 27/27/9
f 28/28/10 29/29/10 30/30/10
f 31/31/11 32/32/11 33/33/11
f 34/34/12 35/35/12 36/36/12
g Object_4_1_0
f 37/37/13 38/38/13 39/39/13
f 40/40/14 41/41/14 42/42/14
f 43/43/15 44/44/15 45/45/15
f 46/46/16 47/47/16 48/48/16
f 49/49/17 50/50/17 51/51/17
f 52/52/18 53/53/18 54/54/18
f 55/55/19 56/56/19 57/57/19
f 58/58/20 59/59/20 60/60/20
f 61/61/21 62/62/21 63/63/21
f 64/64/22 65/65/22 66/66/22
f 67/67/23 68/68/23 69/69/23
f 70/70/24 71/71/24 72/72/24
g Object_4_2_0
f 73/73/25 74/74/25 75/75/25
f 76/76/26 77/77/26 78/78/26
f 79/79/27 80/80/27 81/81/27
f 82/82/28 83/83/28 84/84/28
f 85/85/29 86/86/29 87/87/29
f 88/88/30 89/89/30 90/90/30
f 91/91/31 92/92/31 93/93/31
f 94/94/32 95/95/32 96/96/32
f 97/97/33 98/98/33 99/99/33
f 100/100/34 101/101/34 102/102/34
f 103/103/35 104/104/35 105/105/35
f 106/106/36 107/107/36 108/108/36
g Object_3_3_0
f 109/109/37 110/110/37 111/111/37
f 112/112/38 113/113/38 114/114/38
f 115/115/39 116/116/39 117/117/39
f 118/118/40 119/119/40 120/120/40
f 121/121/41 122/122/41 123/123/41
f 124/124/42 125/125/42 126/126/42
f 127/127/43 128/128/43 129/129/43
f 130/130/44 131/131/44 132/132/44
f 133/133/45 134/134/45 135/135/45
f 136/136/46 137/137/46 138/138/46
f 139/139/47 140/140/47 141/141/47
f 142/142/48 143/143/48 144/144/48
