# Generated by scripts/convert_legacy_models.py; do not edit.
# Source: models/block/gltf/energy_receiver.gltf @ 4108ca9bb332d11965c30e0c592b310d0858f251
mtllib wireless_energy_receiver.mtl

v 0.5625 0 0.4375
v 0.5625 0 0.5625
v 0.4375 0 0.5625
vt 0.375 0.125
vt 0.375 0
vt 0.25 0
vn 0 -1 0
v 0.5625 0 0.4375
v 0.4375 0 0.5625
v 0.4375 0 0.4375
vt 0.375 0.125
vt 0.25 0
vt 0.25 0.125
vn 0 -1 0
v 0.4375 0.0625 0.5625
v 0.5625 0.0625 0.5625
v 0.5625 0.0625 0.4375
vt 0.125 0.125
vt 0.25 0.125
vt 0.25 0
vn 0 1 0
v 0.4375 0.0625 0.5625
v 0.5625 0.0625 0.4375
v 0.4375 0.0625 0.4375
vt 0.125 0.125
vt 0.25 0
vt 0.125 0
vn 0 1 0
v 0.4375 0.0625 0.4375
v 0.5625 0.0625 0.4375
v 0.5625 0 0.4375
vt 0.5 0.125
vt 0.375 0.125
vt 0.375 0.1875
vn 0 0 -1
v 0.4375 0.0625 0.4375
v 0.5625 0 0.4375
v 0.4375 0 0.4375
vt 0.5 0.125
vt 0.375 0.1875
vt 0.5 0.1875
vn 0 0 -1
v 0.5625 0 0.5625
v 0.5625 0.0625 0.5625
v 0.4375 0.0625 0.5625
vt 0.25 0.1875
vt 0.25 0.125
vt 0.125 0.125
vn 0 0 1
v 0.5625 0 0.5625
v 0.4375 0.0625 0.5625
v 0.4375 0 0.5625
vt 0.25 0.1875
vt 0.125 0.125
vt 0.125 0.1875
vn 0 0 1
v 0.4375 0 0.5625
v 0.4375 0.0625 0.5625
v 0.4375 0.0625 0.4375
vt 0.125 0.1875
vt 0.125 0.125
vt 0 0.125
vn -1 0 0
v 0.4375 0 0.5625
v 0.4375 0.0625 0.4375
v 0.4375 0 0.4375
vt 0.125 0.1875
vt 0 0.125
vt 0 0.1875
vn -1 0 0
v 0.5625 0.0625 0.4375
v 0.5625 0.0625 0.5625
v 0.5625 0 0.5625
vt 0.375 0.125
vt 0.25 0.125
vt 0.25 0.1875
vn 1 0 0
v 0.5625 0.0625 0.4375
v 0.5625 0 0.5625
v 0.5625 0 0.4375
vt 0.375 0.125
vt 0.25 0.1875
vt 0.375 0.1875
vn 1 0 0
v 0.53125 0.0625 0.46875
v 0.53125 0.0625 0.53125
v 0.46875 0.0625 0.53125
vt 0.1875 0.25
vt 0.1875 0.1875
vt 0.125 0.1875
vn 0 -1 0
v 0.53125 0.0625 0.46875
v 0.46875 0.0625 0.53125
v 0.46875 0.0625 0.46875
vt 0.1875 0.25
vt 0.125 0.1875
vt 0.125 0.25
vn 0 -1 0
v 0.46875 0.15625 0.53125
v 0.53125 0.15625 0.53125
v 0.53125 0.15625 0.46875
vt 0.0625 0.25
vt 0.125 0.25
vt 0.125 0.1875
vn 0 1 0
v 0.46875 0.15625 0.53125
v 0.53125 0.15625 0.46875
v 0.46875 0.15625 0.46875
vt 0.0625 0.25
vt 0.125 0.1875
vt 0.0625 0.1875
vn 0 1 0
v 0.46875 0.15625 0.46875
v 0.53125 0.15625 0.46875
v 0.53125 0.0625 0.46875
vt 0.25 0.25
vt 0.1875 0.25
vt 0.1875 0.34375
vn 0 0 -1
v 0.46875 0.15625 0.46875
v 0.53125 0.0625 0.46875
v 0.46875 0.0625 0.46875
vt 0.25 0.25
vt 0.1875 0.34375
vt 0.25 0.34375
vn 0 0 -1
v 0.53125 0.0625 0.53125
v 0.53125 0.15625 0.53125
v 0.46875 0.15625 0.53125
vt 0.125 0.34375
vt 0.125 0.25
vt 0.0625 0.25
vn 0 0 1
v 0.53125 0.0625 0.53125
v 0.46875 0.15625 0.53125
v 0.46875 0.0625 0.53125
vt 0.125 0.34375
vt 0.0625 0.25
vt 0.0625 0.34375
vn 0 0 1
v 0.46875 0.0625 0.53125
v 0.46875 0.15625 0.53125
v 0.46875 0.15625 0.46875
vt 0.0625 0.34375
vt 0.0625 0.25
vt 0 0.25
vn -1 0 0
v 0.46875 0.0625 0.53125
v 0.46875 0.15625 0.46875
v 0.46875 0.0625 0.46875
vt 0.0625 0.34375
vt 0 0.25
vt 0 0.34375
vn -1 0 0
v 0.53125 0.15625 0.46875
v 0.53125 0.15625 0.53125
v 0.53125 0.0625 0.53125
vt 0.1875 0.25
vt 0.125 0.25
vt 0.125 0.34375
vn 1 0 0
v 0.53125 0.15625 0.46875
v 0.53125 0.0625 0.53125
v 0.53125 0.0625 0.46875
vt 0.1875 0.25
vt 0.125 0.34375
vt 0.1875 0.34375
vn 1 0 0
v 0.53125 0.156250003 0.566406251
v 0.53125 0.218750003 0.566406251
v 0.46875 0.218750003 0.566406251
vt 0.875 0.125
vt 0.875 0
vt 0.75 0
vn 0 0 1
v 0.53125 0.156250003 0.566406251
v 0.46875 0.218750003 0.566406251
v 0.46875 0.156250003 0.566406251
vt 0.875 0.125
vt 0.75 0
vt 0.75 0.125
vn 0 0 1
v 0.46875 0.218750003 0.433593751
v 0.53125 0.218750003 0.433593751
v 0.53125 0.156250003 0.433593751
vt 0.625 0.125
vt 0.75 0.125
vt 0.75 0
vn 0 0 -1
v 0.46875 0.218750003 0.433593751
v 0.53125 0.156250003 0.433593751
v 0.46875 0.156250003 0.433593751
vt 0.625 0.125
vt 0.75 0
vt 0.625 0
vn 0 0 -1
v 0.46875 0.156250003 0.433593751
v 0.53125 0.156250003 0.433593751
v 0.53125 0.156250003 0.566406251
vt 1 0.125
vt 0.875 0.125
vt 0.875 0.390625
vn 0 -1 0
v 0.46875 0.156250003 0.433593751
v 0.53125 0.156250003 0.566406251
v 0.46875 0.156250003 0.566406251
vt 1 0.125
vt 0.875 0.390625
vt 1 0.390625
vn 0 -1 0
v 0.53125 0.218750003 0.566406251
v 0.53125 0.218750003 0.433593751
v 0.46875 0.218750003 0.433593751
vt 0.75 0.390625
vt 0.75 0.125
vt 0.625 0.125
vn 0 1 0
v 0.53125 0.218750003 0.566406251
v 0.46875 0.218750003 0.433593751
v 0.46875 0.218750003 0.566406251
vt 0.75 0.390625
vt 0.625 0.125
vt 0.625 0.390625
vn 0 1 0
v 0.46875 0.218750003 0.566406251
v 0.46875 0.218750003 0.433593751
v 0.46875 0.156250003 0.433593751
vt 0.625 0.390625
vt 0.625 0.125
vt 0.5 0.125
vn -1 0 0
v 0.46875 0.218750003 0.566406251
v 0.46875 0.156250003 0.433593751
v 0.46875 0.156250003 0.566406251
vt 0.625 0.390625
vt 0.5 0.125
vt 0.5 0.390625
vn -1 0 0
v 0.53125 0.156250003 0.433593751
v 0.53125 0.218750003 0.433593751
v 0.53125 0.218750003 0.566406251
vt 0.875 0.125
vt 0.75 0.125
vt 0.75 0.390625
vn 1 0 0
v 0.53125 0.156250003 0.433593751
v 0.53125 0.218750003 0.566406251
v 0.53125 0.156250003 0.566406251
vt 0.875 0.125
vt 0.75 0.390625
vt 0.875 0.390625
vn 1 0 0
v 0.53125 0.406250003 0.566406251
v 0.53125 0.468750003 0.566406251
v 0.46875 0.468750003 0.566406251
vt 0.875 0.125
vt 0.875 0
vt 0.75 0
vn 0 0 1
v 0.53125 0.406250003 0.566406251
v 0.46875 0.468750003 0.566406251
v 0.46875 0.406250003 0.566406251
vt 0.875 0.125
vt 0.75 0
vt 0.75 0.125
vn 0 0 1
v 0.46875 0.468750003 0.433593751
v 0.53125 0.468750003 0.433593751
v 0.53125 0.406250003 0.433593751
vt 0.625 0.125
vt 0.75 0.125
vt 0.75 0
vn 0 0 -1
v 0.46875 0.468750003 0.433593751
v 0.53125 0.406250003 0.433593751
v 0.46875 0.406250003 0.433593751
vt 0.625 0.125
vt 0.75 0
vt 0.625 0
vn 0 0 -1
v 0.46875 0.406250003 0.433593751
v 0.53125 0.406250003 0.433593751
v 0.53125 0.406250003 0.566406251
vt 1 0.125
vt 0.875 0.125
vt 0.875 0.390625
vn 0 -1 0
v 0.46875 0.406250003 0.433593751
v 0.53125 0.406250003 0.566406251
v 0.46875 0.406250003 0.566406251
vt 1 0.125
vt 0.875 0.390625
vt 1 0.390625
vn 0 -1 0
v 0.53125 0.468750003 0.566406251
v 0.53125 0.468750003 0.433593751
v 0.46875 0.468750003 0.433593751
vt 0.75 0.390625
vt 0.75 0.125
vt 0.625 0.125
vn 0 1 0
v 0.53125 0.468750003 0.566406251
v 0.46875 0.468750003 0.433593751
v 0.46875 0.468750003 0.566406251
vt 0.75 0.390625
vt 0.625 0.125
vt 0.625 0.390625
vn 0 1 0
v 0.46875 0.468750003 0.566406251
v 0.46875 0.468750003 0.433593751
v 0.46875 0.406250003 0.433593751
vt 0.625 0.390625
vt 0.625 0.125
vt 0.5 0.125
vn -1 0 0
v 0.46875 0.468750003 0.566406251
v 0.46875 0.406250003 0.433593751
v 0.46875 0.406250003 0.566406251
vt 0.625 0.390625
vt 0.5 0.125
vt 0.5 0.390625
vn -1 0 0
v 0.53125 0.406250003 0.433593751
v 0.53125 0.468750003 0.433593751
v 0.53125 0.468750003 0.566406251
vt 0.875 0.125
vt 0.75 0.125
vt 0.75 0.390625
vn 1 0 0
v 0.53125 0.406250003 0.433593751
v 0.53125 0.468750003 0.566406251
v 0.53125 0.406250003 0.566406251
vt 0.875 0.125
vt 0.75 0.390625
vt 0.875 0.390625
vn 1 0 0
v 0.53125 0.378906247 0.406249995
v 0.53125 0.378906242 0.343749994
v 0.46875 0.378906242 0.343749994
vt 0.875 0.125
vt 0.875 0
vt 0.75 0
vn 0 1 -0.000000087
v 0.53125 0.378906247 0.406249995
v 0.46875 0.378906242 0.343749994
v 0.46875 0.378906247 0.406249995
vt 0.875 0.125
vt 0.75 0
vt 0.75 0.125
vn 0 1 -0.000000087
v 0.46875 0.246093742 0.343750005
v 0.53125 0.246093742 0.343750005
v 0.53125 0.246093747 0.406250006
vt 0.625 0.125
vt 0.75 0.125
vt 0.75 0
vn 0 -1 0.000000087
v 0.46875 0.246093742 0.343750005
v 0.53125 0.246093747 0.406250006
v 0.46875 0.246093747 0.406250006
vt 0.625 0.125
vt 0.75 0
vt 0.625 0
vn 0 -1 0.000000087
v 0.46875 0.246093747 0.406250006
v 0.53125 0.246093747 0.406250006
v 0.53125 0.378906247 0.406249995
vt 1 0.125
vt 0.875 0.125
vt 0.875 0.390625
vn 0 0.000000087 1
v 0.46875 0.246093747 0.406250006
v 0.53125 0.378906247 0.406249995
v 0.46875 0.378906247 0.406249995
vt 1 0.125
vt 0.875 0.390625
vt 1 0.390625
vn 0 0.000000087 1
v 0.53125 0.378906242 0.343749994
v 0.53125 0.246093742 0.343750005
v 0.46875 0.246093742 0.343750005
vt 0.75 0.390625
vt 0.75 0.125
vt 0.625 0.125
vn 0 -0.000000087 -1
v 0.53125 0.378906242 0.343749994
v 0.46875 0.246093742 0.343750005
v 0.46875 0.378906242 0.343749994
vt 0.75 0.390625
vt 0.625 0.125
vt 0.625 0.390625
vn 0 -0.000000087 -1
v 0.46875 0.378906242 0.343749994
v 0.46875 0.246093742 0.343750005
v 0.46875 0.246093747 0.406250006
vt 0.625 0.390625
vt 0.625 0.125
vt 0.5 0.125
vn -1 0 0
v 0.46875 0.378906242 0.343749994
v 0.46875 0.246093747 0.406250006
v 0.46875 0.378906247 0.406249995
vt 0.625 0.390625
vt 0.5 0.125
vt 0.5 0.390625
vn -1 0 0
v 0.53125 0.246093747 0.406250006
v 0.53125 0.246093742 0.343750005
v 0.53125 0.378906242 0.343749994
vt 0.875 0.125
vt 0.75 0.125
vt 0.75 0.390625
vn 1 0 0
v 0.53125 0.246093747 0.406250006
v 0.53125 0.378906242 0.343749994
v 0.53125 0.378906247 0.406249995
vt 0.875 0.125
vt 0.75 0.390625
vt 0.875 0.390625
vn 1 0 0
v 0.53125 0.378906258 0.656249995
v 0.53125 0.378906253 0.593749994
v 0.46875 0.378906253 0.593749994
vt 0.875 0.125
vt 0.875 0
vt 0.75 0
vn 0 1 -0.000000087
v 0.53125 0.378906258 0.656249995
v 0.46875 0.378906253 0.593749994
v 0.46875 0.378906258 0.656249995
vt 0.875 0.125
vt 0.75 0
vt 0.75 0.125
vn 0 1 -0.000000087
v 0.46875 0.246093753 0.593750005
v 0.53125 0.246093753 0.593750005
v 0.53125 0.246093758 0.656250006
vt 0.625 0.125
vt 0.75 0.125
vt 0.75 0
vn 0 -1 0.000000087
v 0.46875 0.246093753 0.593750005
v 0.53125 0.246093758 0.656250006
v 0.46875 0.246093758 0.656250006
vt 0.625 0.125
vt 0.75 0
vt 0.625 0
vn 0 -1 0.000000087
v 0.46875 0.246093758 0.656250006
v 0.53125 0.246093758 0.656250006
v 0.53125 0.378906258 0.656249995
vt 1 0.125
vt 0.875 0.125
vt 0.875 0.390625
vn 0 0.000000087 1
v 0.46875 0.246093758 0.656250006
v 0.53125 0.378906258 0.656249995
v 0.46875 0.378906258 0.656249995
vt 1 0.125
vt 0.875 0.390625
vt 1 0.390625
vn 0 0.000000087 1
v 0.53125 0.378906253 0.593749994
v 0.53125 0.246093753 0.593750005
v 0.46875 0.246093753 0.593750005
vt 0.75 0.390625
vt 0.75 0.125
vt 0.625 0.125
vn 0 -0.000000087 -1
v 0.53125 0.378906253 0.593749994
v 0.46875 0.246093753 0.593750005
v 0.46875 0.378906253 0.593749994
vt 0.75 0.390625
vt 0.625 0.125
vt 0.625 0.390625
vn 0 -0.000000087 -1
v 0.46875 0.378906253 0.593749994
v 0.46875 0.246093753 0.593750005
v 0.46875 0.246093758 0.656250006
vt 0.625 0.390625
vt 0.625 0.125
vt 0.5 0.125
vn -1 0 0
v 0.46875 0.378906253 0.593749994
v 0.46875 0.246093758 0.656250006
v 0.46875 0.378906258 0.656249995
vt 0.625 0.390625
vt 0.5 0.125
vt 0.5 0.390625
vn -1 0 0
v 0.53125 0.246093758 0.656250006
v 0.53125 0.246093753 0.593750005
v 0.53125 0.378906253 0.593749994
vt 0.875 0.125
vt 0.75 0.125
vt 0.75 0.390625
vn 1 0 0
v 0.53125 0.246093758 0.656250006
v 0.53125 0.378906253 0.593749994
v 0.53125 0.378906258 0.656249995
vt 0.875 0.125
vt 0.75 0.390625
vt 0.875 0.390625
vn 1 0 0
v 0.531312495 0.422985437 0.47790291
v 0.531312495 0.467179607 0.433708732
v 0.468812495 0.467179607 0.433708732
vt 0.875 0.125
vt 0.875 0
vt 0.75 0
vn 0 0.707106838 0.707106724
v 0.531312495 0.422985437 0.47790291
v 0.468812495 0.467179607 0.433708732
v 0.468812495 0.422985437 0.47790291
vt 0.875 0.125
vt 0.75 0
vt 0.75 0.125
vn 0 0.707106838 0.707106724
v 0.468812495 0.378791252 0.345320392
v 0.531312495 0.378791252 0.345320392
v 0.531312495 0.334597082 0.389514569
vt 0.625 0.125
vt 0.75 0.125
vt 0.75 0
vn 0 -0.707106838 -0.707106724
v 0.468812495 0.378791252 0.345320392
v 0.531312495 0.334597082 0.389514569
v 0.468812495 0.334597082 0.389514569
vt 0.625 0.125
vt 0.75 0
vt 0.625 0
vn 0 -0.707106838 -0.707106724
v 0.468812495 0.334597082 0.389514569
v 0.531312495 0.334597082 0.389514569
v 0.531312495 0.422985437 0.47790291
vt 1 0.125
vt 0.875 0.125
vt 0.875 0.375
vn 0 -0.707106724 0.707106838
v 0.468812495 0.334597082 0.389514569
v 0.531312495 0.422985437 0.47790291
v 0.468812495 0.422985437 0.47790291
vt 1 0.125
vt 0.875 0.375
vt 1 0.375
vn 0 -0.707106724 0.707106838
v 0.531312495 0.467179607 0.433708732
v 0.531312495 0.378791252 0.345320392
v 0.468812495 0.378791252 0.345320392
vt 0.75 0.375
vt 0.75 0.125
vt 0.625 0.125
vn 0 0.707106724 -0.707106838
v 0.531312495 0.467179607 0.433708732
v 0.468812495 0.378791252 0.345320392
v 0.468812495 0.467179607 0.433708732
vt 0.75 0.375
vt 0.625 0.125
vt 0.625 0.375
vn 0 0.707106724 -0.707106838
v 0.468812495 0.467179607 0.433708732
v 0.468812495 0.378791252 0.345320392
v 0.468812495 0.334597082 0.389514569
vt 0.625 0.375
vt 0.625 0.125
vt 0.5 0.125
vn -1 0 0
v 0.468812495 0.467179607 0.433708732
v 0.468812495 0.334597082 0.389514569
v 0.468812495 0.422985437 0.47790291
vt 0.625 0.375
vt 0.5 0.125
vt 0.5 0.375
vn -1 0 0
v 0.531312495 0.334597082 0.389514569
v 0.531312495 0.378791252 0.345320392
v 0.531312495 0.467179607 0.433708732
vt 0.875 0.125
vt 0.75 0.125
vt 0.75 0.375
vn 1 0 0
v 0.531312495 0.334597082 0.389514569
v 0.531312495 0.467179607 0.433708732
v 0.531312495 0.422985437 0.47790291
vt 0.875 0.125
vt 0.75 0.375
vt 0.875 0.375
vn 1 0 0
v 0.531312495 0.246208746 0.654679609
v 0.531312495 0.290402916 0.610485431
v 0.468812495 0.290402916 0.610485431
vt 0.875 0.125
vt 0.875 0
vt 0.75 0
vn 0 0.707106838 0.707106724
v 0.531312495 0.246208746 0.654679609
v 0.468812495 0.290402916 0.610485431
v 0.468812495 0.246208746 0.654679609
vt 0.875 0.125
vt 0.75 0
vt 0.75 0.125
vn 0 0.707106838 0.707106724
v 0.468812495 0.202014561 0.522097091
v 0.531312495 0.202014561 0.522097091
v 0.531312495 0.157820391 0.566291268
vt 0.625 0.125
vt 0.75 0.125
vt 0.75 0
vn 0 -0.707106838 -0.707106724
v 0.468812495 0.202014561 0.522097091
v 0.531312495 0.157820391 0.566291268
v 0.468812495 0.157820391 0.566291268
vt 0.625 0.125
vt 0.75 0
vt 0.625 0
vn 0 -0.707106838 -0.707106724
v 0.468812495 0.157820391 0.566291268
v 0.531312495 0.157820391 0.566291268
v 0.531312495 0.246208746 0.654679609
vt 1 0.125
vt 0.875 0.125
vt 0.875 0.375
vn 0 -0.707106724 0.707106838
v 0.468812495 0.157820391 0.566291268
v 0.531312495 0.246208746 0.654679609
v 0.468812495 0.246208746 0.654679609
vt 1 0.125
vt 0.875 0.375
vt 1 0.375
vn 0 -0.707106724 0.707106838
v 0.531312495 0.290402916 0.610485431
v 0.531312495 0.202014561 0.522097091
v 0.468812495 0.202014561 0.522097091
vt 0.75 0.375
vt 0.75 0.125
vt 0.625 0.125
vn 0 0.707106724 -0.707106838
v 0.531312495 0.290402916 0.610485431
v 0.468812495 0.202014561 0.522097091
v 0.468812495 0.290402916 0.610485431
vt 0.75 0.375
vt 0.625 0.125
vt 0.625 0.375
vn 0 0.707106724 -0.707106838
v 0.468812495 0.290402916 0.610485431
v 0.468812495 0.202014561 0.522097091
v 0.468812495 0.157820391 0.566291268
vt 0.625 0.375
vt 0.625 0.125
vt 0.5 0.125
vn -1 0 0
v 0.468812495 0.290402916 0.610485431
v 0.468812495 0.157820391 0.566291268
v 0.468812495 0.246208746 0.654679609
vt 0.625 0.375
vt 0.5 0.125
vt 0.5 0.375
vn -1 0 0
v 0.531312495 0.157820391 0.566291268
v 0.531312495 0.202014561 0.522097091
v 0.531312495 0.290402916 0.610485431
vt 0.875 0.125
vt 0.75 0.125
vt 0.75 0.375
vn 1 0 0
v 0.531312495 0.157820391 0.566291268
v 0.531312495 0.290402916 0.610485431
v 0.531312495 0.246208746 0.654679609
vt 0.875 0.125
vt 0.75 0.375
vt 0.875 0.375
vn 1 0 0
v 0.531312495 0.290402905 0.389514564
v 0.531312495 0.246208724 0.345320397
v 0.468812495 0.246208724 0.345320397
vt 0.875 0.125
vt 0.875 0
vt 0.75 0
vn 0 0.707106675 -0.707106887
v 0.531312495 0.290402905 0.389514564
v 0.468812495 0.246208724 0.345320397
v 0.468812495 0.290402905 0.389514564
vt 0.875 0.125
vt 0.75 0
vt 0.75 0.125
vn 0 0.707106675 -0.707106887
v 0.468812495 0.15782039 0.433708758
v 0.531312495 0.15782039 0.433708758
v 0.531312495 0.20201457 0.477902925
vt 0.625 0.125
vt 0.75 0.125
vt 0.75 0
vn 0 -0.707106675 0.707106887
v 0.468812495 0.15782039 0.433708758
v 0.531312495 0.20201457 0.477902925
v 0.468812495 0.20201457 0.477902925
vt 0.625 0.125
vt 0.75 0
vt 0.625 0
vn 0 -0.707106675 0.707106887
v 0.468812495 0.20201457 0.477902925
v 0.531312495 0.20201457 0.477902925
v 0.531312495 0.290402905 0.389514564
vt 1 0.125
vt 0.875 0.125
vt 0.875 0.375
vn 0 0.707106887 0.707106675
v 0.468812495 0.20201457 0.477902925
v 0.531312495 0.290402905 0.389514564
v 0.468812495 0.290402905 0.389514564
vt 1 0.125
vt 0.875 0.375
vt 1 0.375
vn 0 0.707106887 0.707106675
v 0.531312495 0.246208724 0.345320397
v 0.531312495 0.15782039 0.433708758
v 0.468812495 0.15782039 0.433708758
vt 0.75 0.375
vt 0.75 0.125
vt 0.625 0.125
vn 0 -0.707106887 -0.707106675
v 0.531312495 0.246208724 0.345320397
v 0.468812495 0.15782039 0.433708758
v 0.468812495 0.246208724 0.345320397
vt 0.75 0.375
vt 0.625 0.125
vt 0.625 0.375
vn 0 -0.707106887 -0.707106675
v 0.468812495 0.246208724 0.345320397
v 0.468812495 0.15782039 0.433708758
v 0.468812495 0.20201457 0.477902925
vt 0.625 0.375
vt 0.625 0.125
vt 0.5 0.125
vn -1 0 0
v 0.468812495 0.246208724 0.345320397
v 0.468812495 0.20201457 0.477902925
v 0.468812495 0.290402905 0.389514564
vt 0.625 0.375
vt 0.5 0.125
vt 0.5 0.375
vn -1 0 0
v 0.531312495 0.20201457 0.477902925
v 0.531312495 0.15782039 0.433708758
v 0.531312495 0.246208724 0.345320397
vt 0.875 0.125
vt 0.75 0.125
vt 0.75 0.375
vn 1 0 0
v 0.531312495 0.20201457 0.477902925
v 0.531312495 0.246208724 0.345320397
v 0.531312495 0.290402905 0.389514564
vt 0.875 0.125
vt 0.75 0.375
vt 0.875 0.375
vn 1 0 0
v 0.531312495 0.467179612 0.566291248
v 0.531312495 0.422985431 0.52209708
v 0.468812495 0.422985431 0.52209708
vt 0.875 0.125
vt 0.875 0
vt 0.75 0
vn 0 0.707106675 -0.707106887
v 0.531312495 0.467179612 0.566291248
v 0.468812495 0.422985431 0.52209708
v 0.468812495 0.467179612 0.566291248
vt 0.875 0.125
vt 0.75 0
vt 0.75 0.125
vn 0 0.707106675 -0.707106887
v 0.468812495 0.334597097 0.610485441
v 0.531312495 0.334597097 0.610485441
v 0.531312495 0.378791277 0.654679609
vt 0.625 0.125
vt 0.75 0.125
vt 0.75 0
vn 0 -0.707106675 0.707106887
v 0.468812495 0.334597097 0.610485441
v 0.531312495 0.378791277 0.654679609
v 0.468812495 0.378791277 0.654679609
vt 0.625 0.125
vt 0.75 0
vt 0.625 0
vn 0 -0.707106675 0.707106887
v 0.468812495 0.378791277 0.654679609
v 0.531312495 0.378791277 0.654679609
v 0.531312495 0.467179612 0.566291248
vt 1 0.125
vt 0.875 0.125
vt 0.875 0.375
vn 0 0.707106887 0.707106675
v 0.468812495 0.378791277 0.654679609
v 0.531312495 0.467179612 0.566291248
v 0.468812495 0.467179612 0.566291248
vt 1 0.125
vt 0.875 0.375
vt 1 0.375
vn 0 0.707106887 0.707106675
v 0.531312495 0.422985431 0.52209708
v 0.531312495 0.334597097 0.610485441
v 0.468812495 0.334597097 0.610485441
vt 0.75 0.375
vt 0.75 0.125
vt 0.625 0.125
vn 0 -0.707106887 -0.707106675
v 0.531312495 0.422985431 0.52209708
v 0.468812495 0.334597097 0.610485441
v 0.468812495 0.422985431 0.52209708
vt 0.75 0.375
vt 0.625 0.125
vt 0.625 0.375
vn 0 -0.707106887 -0.707106675
v 0.468812495 0.422985431 0.52209708
v 0.468812495 0.334597097 0.610485441
v 0.468812495 0.378791277 0.654679609
vt 0.625 0.375
vt 0.625 0.125
vt 0.5 0.125
vn -1 0 0
v 0.468812495 0.422985431 0.52209708
v 0.468812495 0.378791277 0.654679609
v 0.468812495 0.467179612 0.566291248
vt 0.625 0.375
vt 0.5 0.125
vt 0.5 0.375
vn -1 0 0
v 0.531312495 0.378791277 0.654679609
v 0.531312495 0.334597097 0.610485441
v 0.531312495 0.422985431 0.52209708
vt 0.875 0.125
vt 0.75 0.125
vt 0.75 0.375
vn 1 0 0
v 0.531312495 0.378791277 0.654679609
v 0.531312495 0.422985431 0.52209708
v 0.531312495 0.467179612 0.566291248
vt 0.875 0.125
vt 0.75 0.375
vt 0.875 0.375
vn 1 0 0

g Object_1_0_0
usemtl material_0_magneticraft_blocks_electric_connectors_energy_receiver
f 1/1/1 2/2/1 3/3/1
f 4/4/2 5/5/2 6/6/2
f 7/7/3 8/8/3 9/9/3
f 10/10/4 11/11/4 12/12/4
f 13/13/5 14/14/5 15/15/5
f 16/16/6 17/17/6 18/18/6
f 19/19/7 20/20/7 21/21/7
f 22/22/8 23/23/8 24/24/8
f 25/25/9 26/26/9 27/27/9
f 28/28/10 29/29/10 30/30/10
f 31/31/11 32/32/11 33/33/11
f 34/34/12 35/35/12 36/36/12
g Object_2_1_0
f 37/37/13 38/38/13 39/39/13
f 40/40/14 41/41/14 42/42/14
f 43/43/15 44/44/15 45/45/15
f 46/46/16 47/47/16 48/48/16
f 49/49/17 50/50/17 51/51/17
f 52/52/18 53/53/18 54/54/18
f 55/55/19 56/56/19 57/57/19
f 58/58/20 59/59/20 60/60/20
f 61/61/21 62/62/21 63/63/21
f 64/64/22 65/65/22 66/66/22
f 67/67/23 68/68/23 69/69/23
f 70/70/24 71/71/24 72/72/24
g Object_2_2_0
f 73/73/25 74/74/25 75/75/25
f 76/76/26 77/77/26 78/78/26
f 79/79/27 80/80/27 81/81/27
f 82/82/28 83/83/28 84/84/28
f 85/85/29 86/86/29 87/87/29
f 88/88/30 89/89/30 90/90/30
f 91/91/31 92/92/31 93/93/31
f 94/94/32 95/95/32 96/96/32
f 97/97/33 98/98/33 99/99/33
f 100/100/34 101/101/34 102/102/34
f 103/103/35 104/104/35 105/105/35
f 106/106/36 107/107/36 108/108/36
g Object_2_3_0
f 109/109/37 110/110/37 111/111/37
f 112/112/38 113/113/38 114/114/38
f 115/115/39 116/116/39 117/117/39
f 118/118/40 119/119/40 120/120/40
f 121/121/41 122/122/41 123/123/41
f 124/124/42 125/125/42 126/126/42
f 127/127/43 128/128/43 129/129/43
f 130/130/44 131/131/44 132/132/44
f 133/133/45 134/134/45 135/135/45
f 136/136/46 137/137/46 138/138/46
f 139/139/47 140/140/47 141/141/47
f 142/142/48 143/143/48 144/144/48
g Object_2_4_0
f 145/145/49 146/146/49 147/147/49
f 148/148/50 149/149/50 150/150/50
f 151/151/51 152/152/51 153/153/51
f 154/154/52 155/155/52 156/156/52
f 157/157/53 158/158/53 159/159/53
f 160/160/54 161/161/54 162/162/54
f 163/163/55 164/164/55 165/165/55
f 166/166/56 167/167/56 168/168/56
f 169/169/57 170/170/57 171/171/57
f 172/172/58 173/173/58 174/174/58
f 175/175/59 176/176/59 177/177/59
f 178/178/60 179/179/60 180/180/60
g Object_2_5_0
f 181/181/61 182/182/61 183/183/61
f 184/184/62 185/185/62 186/186/62
f 187/187/63 188/188/63 189/189/63
f 190/190/64 191/191/64 192/192/64
f 193/193/65 194/194/65 195/195/65
f 196/196/66 197/197/66 198/198/66
f 199/199/67 200/200/67 201/201/67
f 202/202/68 203/203/68 204/204/68
f 205/205/69 206/206/69 207/207/69
f 208/208/70 209/209/70 210/210/70
f 211/211/71 212/212/71 213/213/71
f 214/214/72 215/215/72 216/216/72
g Object_2_6_0
f 217/217/73 218/218/73 219/219/73
f 220/220/74 221/221/74 222/222/74
f 223/223/75 224/224/75 225/225/75
f 226/226/76 227/227/76 228/228/76
f 229/229/77 230/230/77 231/231/77
f 232/232/78 233/233/78 234/234/78
f 235/235/79 236/236/79 237/237/79
f 238/238/80 239/239/80 240/240/80
f 241/241/81 242/242/81 243/243/81
f 244/244/82 245/245/82 246/246/82
f 247/247/83 248/248/83 249/249/83
f 250/250/84 251/251/84 252/252/84
g Object_2_7_0
f 253/253/85 254/254/85 255/255/85
f 256/256/86 257/257/86 258/258/86
f 259/259/87 260/260/87 261/261/87
f 262/262/88 263/263/88 264/264/88
f 265/265/89 266/266/89 267/267/89
f 268/268/90 269/269/90 270/270/90
f 271/271/91 272/272/91 273/273/91
f 274/274/92 275/275/92 276/276/92
f 277/277/93 278/278/93 279/279/93
f 280/280/94 281/281/94 282/282/94
f 283/283/95 284/284/95 285/285/95
f 286/286/96 287/287/96 288/288/96
g Object_2_8_0
f 289/289/97 290/290/97 291/291/97
f 292/292/98 293/293/98 294/294/98
f 295/295/99 296/296/99 297/297/99
f 298/298/100 299/299/100 300/300/100
f 301/301/101 302/302/101 303/303/101
f 304/304/102 305/305/102 306/306/102
f 307/307/103 308/308/103 309/309/103
f 310/310/104 311/311/104 312/312/104
f 313/313/105 314/314/105 315/315/105
f 316/316/106 317/317/106 318/318/106
f 319/319/107 320/320/107 321/321/107
f 322/322/108 323/323/108 324/324/108
g Object_2_9_0
f 325/325/109 326/326/109 327/327/109
f 328/328/110 329/329/110 330/330/110
f 331/331/111 332/332/111 333/333/111
f 334/334/112 335/335/112 336/336/112
f 337/337/113 338/338/113 339/339/113
f 340/340/114 341/341/114 342/342/114
f 343/343/115 344/344/115 345/345/115
f 346/346/116 347/347/116 348/348/116
f 349/349/117 350/350/117 351/351/117
f 352/352/118 353/353/118 354/354/118
f 355/355/119 356/356/119 357/357/119
f 358/358/120 359/359/120 360/360/120
