{
  "asset": {"version": "2.0", "generator": "Magneticraft electrical redesign"},
  "scene": 0,
  "scenes": [{"nodes": [0, 1, 2, 3, 4, 5, 6]}],
  "nodes": [
    {"name": "housing", "mesh": 0, "translation": [0.125, 0.0625, 0.1875], "scale": [0.75, 0.75, 0.625]},
    {"name": "top_cap", "mesh": 0, "translation": [0.1875, 0.8125, 0.25], "scale": [0.625, 0.125, 0.5]},
    {"name": "input_terminal", "mesh": 0, "translation": [0.25, 0.0, 0.375], "scale": [0.125, 0.125, 0.25]},
    {"name": "output_terminal", "mesh": 0, "translation": [0.625, 0.0, 0.375], "scale": [0.125, 0.125, 0.25]},
    {"name": "tier_band", "mesh": 1, "translation": [0.1875, 0.35, 0.155], "scale": [0.625, 0.125, 0.035]},
    {"name": "arrow_forward", "mesh": 2, "translation": [0.375, 0.56, 0.145], "scale": [0.25, 0.08, 0.035]},
    {"name": "arrow_reverse", "mesh": 2, "translation": [0.375, 0.56, 0.145], "scale": [0.25, 0.08, 0.035]}
  ],
  "meshes": [
    {"name": "housing_mesh", "primitives": [{"attributes": {"POSITION": 0, "TEXCOORD_0": 1}, "indices": 2, "material": 0}]},
    {"name": "tier_mesh", "primitives": [{"attributes": {"POSITION": 0, "TEXCOORD_0": 1}, "indices": 2, "material": 1}]},
    {"name": "state_mesh", "primitives": [{"attributes": {"POSITION": 0, "TEXCOORD_0": 1}, "indices": 2, "material": 2}]}
  ],
  "materials": [
    {"name": "housing", "pbrMetallicRoughness": {"baseColorTexture": {"index": 0}, "metallicFactor": 0.0, "roughnessFactor": 1.0}},
    {"name": "tier_band", "pbrMetallicRoughness": {"baseColorTexture": {"index": 1}, "metallicFactor": 0.0, "roughnessFactor": 1.0}},
    {"name": "state_indicator", "pbrMetallicRoughness": {"baseColorTexture": {"index": 1}, "metallicFactor": 0.0, "roughnessFactor": 1.0}}
  ],
  "textures": [{"source": 0}, {"source": 1}],
  "images": [{"uri": "minecraft:block/iron_block"}, {"uri": "minecraft:block/white_concrete"}],
  "accessors": [
    {"bufferView": 0, "componentType": 5126, "count": 24, "type": "VEC3", "min": [0, 0, 0], "max": [1, 1, 1]},
    {"bufferView": 1, "componentType": 5126, "count": 24, "type": "VEC2", "min": [0, 0], "max": [1, 1]},
    {"bufferView": 2, "componentType": 5123, "count": 36, "type": "SCALAR", "min": [0], "max": [23]}
  ],
  "bufferViews": [
    {"buffer": 0, "byteOffset": 0, "byteLength": 288, "target": 34962},
    {"buffer": 0, "byteOffset": 288, "byteLength": 192, "target": 34962},
    {"buffer": 0, "byteOffset": 480, "byteLength": 72, "target": 34963}
  ],
  "buffers": [{"byteLength": 552, "uri": "data:application/octet-stream;base64,"}]
}
