{
  "asset": {"version": "2.0", "generator": "Magneticraft electrical redesign"},
  "scene": 0,
  "scenes": [{"nodes": [0, 1, 2, 3, 4, 5, 6]}],
  "nodes": [
    {"name": "charred_core", "mesh": 0, "translation": [0.25, 0.25, 0.25], "scale": [0.5, 0.5, 0.5]},
    {"name": "stub_west", "mesh": 0, "translation": [0.0, 0.4, 0.4], "scale": [0.3, 0.2, 0.2]},
    {"name": "stub_east", "mesh": 0, "translation": [0.7, 0.4, 0.4], "scale": [0.3, 0.2, 0.2]},
    {"name": "stub_down", "mesh": 0, "translation": [0.4, 0.0, 0.4], "scale": [0.2, 0.3, 0.2]},
    {"name": "stub_up", "mesh": 0, "translation": [0.4, 0.7, 0.4], "scale": [0.2, 0.3, 0.2]},
    {"name": "stub_north", "mesh": 0, "translation": [0.4, 0.4, 0.0], "scale": [0.2, 0.2, 0.3]},
    {"name": "stub_south", "mesh": 0, "translation": [0.4, 0.4, 0.7], "scale": [0.2, 0.2, 0.3]}
  ],
  "meshes": [{"name": "burnt_mesh", "primitives": [{"attributes": {"POSITION": 0, "TEXCOORD_0": 1}, "indices": 2, "material": 0}]}],
  "materials": [{"name": "charred", "pbrMetallicRoughness": {"baseColorTexture": {"index": 0}}}],
  "textures": [{"source": 0}],
  "images": [{"uri": "minecraft:block/black_concrete"}],
  "accessors": [
    {"bufferView": 0, "componentType": 5126, "count": 24, "type": "VEC3", "min": [0, 0, 0], "max": [1, 1, 1]},
    {"bufferView": 1, "componentType": 5126, "count": 24, "type": "VEC2", "min": [0, 0], "max": [1, 1]},
    {"bufferView": 2, "componentType": 5123, "count": 36, "type": "SCALAR", "min": [0], "max": [23]}
  ],
  "bufferViews": [
    {"buffer": 0, "byteOffset": 0, "byteLength": 288, "target": 34962},
    {"buffer": 0, "byteOffset": 288, "byteLength": 192, "target": 34962},
    {"buffer": 0, "byteOffset": 480, "byteLength": 72, "target": 34963}
  ],
  "buffers": [{"byteLength": 552, "uri": "data:application/octet-stream;base64,"}]
}
