{
  "asset": {"version": "2.0", "generator": "Magneticraft formed nuclear structures"},
  "scene": 0,
  "scenes": [{"nodes": [0, 1, 2, 3, 4, 5, 6, 7, 8, 9, 10, 11, 12, 13, 14, 15, 16, 17, 18, 19, 20, 21]}],
  "nodes": [
    {"name": "pool_floor", "mesh": 0, "translation": [0.02, 0.0, 0.02], "scale": [0.96, 0.09, 0.96]},
    {"name": "front_wall", "mesh": 0, "translation": [0.0, 0.08, 0.0], "scale": [1.0, 0.84, 0.075]},
    {"name": "rear_wall", "mesh": 0, "translation": [0.0, 0.08, 0.925], "scale": [1.0, 0.84, 0.075]},
    {"name": "left_wall", "mesh": 0, "translation": [0.0, 0.08, 0.075], "scale": [0.075, 0.84, 0.85]},
    {"name": "right_wall", "mesh": 0, "translation": [0.925, 0.08, 0.075], "scale": [0.075, 0.84, 0.85]},
    {"name": "front_rim", "mesh": 2, "translation": [-0.015, 0.91, -0.015], "scale": [1.03, 0.075, 0.11]},
    {"name": "rear_rim", "mesh": 2, "translation": [-0.015, 0.91, 0.905], "scale": [1.03, 0.075, 0.11]},
    {"name": "left_rim", "mesh": 2, "translation": [-0.015, 0.91, 0.095], "scale": [0.11, 0.075, 0.81]},
    {"name": "right_rim", "mesh": 2, "translation": [0.905, 0.91, 0.095], "scale": [0.11, 0.075, 0.81]},
    {"name": "front_left_post", "mesh": 1, "translation": [0.015, 0.08, 0.015], "scale": [0.105, 0.88, 0.105]},
    {"name": "front_right_post", "mesh": 1, "translation": [0.88, 0.08, 0.015], "scale": [0.105, 0.88, 0.105]},
    {"name": "rear_left_post", "mesh": 1, "translation": [0.015, 0.08, 0.88], "scale": [0.105, 0.88, 0.105]},
    {"name": "rear_right_post", "mesh": 1, "translation": [0.88, 0.08, 0.88], "scale": [0.105, 0.88, 0.105]},
    {"name": "pool_controller", "mesh": 3, "translation": [0.36, 0.22, -0.025], "scale": [0.28, 0.30, 0.105]},
    {"name": "pool_controller_header", "mesh": 2, "translation": [0.38, 0.47, -0.03], "scale": [0.24, 0.055, 0.115]},
    {"name": "cooling_port", "mesh": 4, "translation": [0.39, 0.20, 0.92], "scale": [0.22, 0.24, 0.11]},
    {"name": "ladder_left", "mesh": 4, "translation": [0.20, 0.58, 0.075], "scale": [0.025, 0.34, 0.035]},
    {"name": "ladder_right", "mesh": 4, "translation": [0.30, 0.58, 0.075], "scale": [0.025, 0.34, 0.035]},
    {"name": "ladder_step_1", "mesh": 4, "translation": [0.20, 0.64, 0.068], "scale": [0.125, 0.025, 0.05]},
    {"name": "ladder_step_2", "mesh": 4, "translation": [0.20, 0.73, 0.068], "scale": [0.125, 0.025, 0.05]},
    {"name": "ladder_step_3", "mesh": 4, "translation": [0.20, 0.82, 0.068], "scale": [0.125, 0.025, 0.05]},
    {"name": "service_rail", "mesh": 1, "translation": [0.12, 0.12, 0.47], "scale": [0.76, 0.035, 0.06]}
  ],
  "meshes": [
    {"name": "lining_mesh", "primitives": [{"attributes": {"POSITION": 0, "TEXCOORD_0": 1}, "indices": 2, "material": 0}]},
    {"name": "structure_mesh", "primitives": [{"attributes": {"POSITION": 0, "TEXCOORD_0": 1}, "indices": 2, "material": 1}]},
    {"name": "hazard_mesh", "primitives": [{"attributes": {"POSITION": 0, "TEXCOORD_0": 1}, "indices": 2, "material": 2}]},
    {"name": "electrical_mesh", "primitives": [{"attributes": {"POSITION": 0, "TEXCOORD_0": 1}, "indices": 2, "material": 3}]},
    {"name": "cooling_mesh", "primitives": [{"attributes": {"POSITION": 0, "TEXCOORD_0": 1}, "indices": 2, "material": 4}]}
  ],
  "materials": [
    {"name": "lining", "alphaMode": "OPAQUE", "pbrMetallicRoughness": {"baseColorTexture": {"index": 0}, "metallicFactor": 0.0, "roughnessFactor": 1.0}},
    {"name": "structure", "alphaMode": "OPAQUE", "pbrMetallicRoughness": {"baseColorTexture": {"index": 1}, "metallicFactor": 0.0, "roughnessFactor": 1.0}},
    {"name": "hazard", "alphaMode": "OPAQUE", "pbrMetallicRoughness": {"baseColorTexture": {"index": 2}, "metallicFactor": 0.0, "roughnessFactor": 1.0}},
    {"name": "electrical", "alphaMode": "OPAQUE", "pbrMetallicRoughness": {"baseColorTexture": {"index": 3}, "metallicFactor": 0.0, "roughnessFactor": 1.0}},
    {"name": "cooling", "alphaMode": "OPAQUE", "pbrMetallicRoughness": {"baseColorTexture": {"index": 4}, "metallicFactor": 0.0, "roughnessFactor": 1.0}}
  ],
  "textures": [{"source": 0}, {"source": 1}, {"source": 2}, {"source": 3}, {"source": 4}],
  "images": [
    {"uri": "magneticraft:block/multiblock_parts/base_side"},
    {"uri": "magneticraft:block/multiblock_parts/corrugated_iron_side"},
    {"uri": "magneticraft:block/multiblock_parts/striped"},
    {"uri": "magneticraft:block/multiblock_parts/electric"},
    {"uri": "magneticraft:block/multiblock_parts/copper_coil_side"}
  ],
  "accessors": [
    {"bufferView": 0, "componentType": 5126, "count": 24, "type": "VEC3", "min": [0, 0, 0], "max": [1, 1, 1]},
    {"bufferView": 1, "componentType": 5126, "count": 24, "type": "VEC2", "min": [0, 0], "max": [1, 1]},
    {"bufferView": 2, "componentType": 5123, "count": 36, "type": "SCALAR", "min": [0], "max": [23]}
  ],
  "bufferViews": [
    {"buffer": 0, "byteOffset": 0, "byteLength": 288, "target": 34962},
    {"buffer": 0, "byteOffset": 288, "byteLength": 192, "target": 34962},
    {"buffer": 0, "byteOffset": 480, "byteLength": 72, "target": 34963}
  ],
  "buffers": [{"byteLength": 552, "uri": "data:application/octet-stream;base64,"}]
}
